<?xml version="1.0" encoding="utf-8"?>
<!-- Generator: Adobe Illustrator 19.2.1, SVG Export Plug-In . SVG Version: 6.00 Build 0)  -->
<svg version="1.1" id="Layer_1" xmlns="http://www.w3.org/2000/svg" xmlns:xlink="http://www.w3.org/1999/xlink" x="0px" y="0px"
	 viewBox="0 0 212 131.7" style="enable-background:new 0 0 212 131.7;" xml:space="preserve">
<style type="text/css">
	.st0{fill:#184579;}
	.st1{fill:#00A9B7;}
	.st2{fill-rule:evenodd;clip-rule:evenodd;fill:none;}
</style>
<g>
	<g>
		<path class="st0" d="M103.9,56.4c1.4-0.2,2.8-0.4,4.2-0.5c1.4-0.1,2.8-0.3,4.2-0.4l-0.9,0.9c-0.2-1.7-0.3-3.4-0.4-5.2
			c-0.1-1.7-0.2-3.4-0.2-5.2l0-2.6l0-2.6c0-1.7,0.1-3.4,0.2-5.2l1.3,1.3c-4.3,0-8.7-0.2-13-0.2l1.1-1.1l-0.2,5.2
			c-0.1,1.7-0.1,3.4-0.2,5.2c-0.2,3.4-0.4,6.9-0.6,10.3c-0.3-3.4-0.5-6.9-0.6-10.3c-0.1-1.7-0.2-3.4-0.2-5.2l-0.2-5.2l0-1l1.1,0
			c4.3-0.1,8.7-0.2,13-0.2l1.2,0l0.1,1.3c0.1,1.7,0.2,3.4,0.2,5.2l0,2.6l0,2.6c0,1.7-0.1,3.4-0.2,5.2c-0.1,1.7-0.2,3.4-0.4,5.2
			l-0.1,1l-0.8-0.1c-1.4-0.1-2.8-0.2-4.2-0.4C106.7,56.8,105.3,56.6,103.9,56.4z"/>
	</g>
</g>
<g>
	<path class="st1" d="M19.8,63.3l10.5,43.9c0.2,1-0.5,1.8-1.5,1.8h-4.5c-1-0.2-1.1-1.3-1.3-2.3l-0.2-0.7c-0.3-1.4-1.2-2.1-2.6-2.1
		H12c-1.4,0-2.3,0.7-2.6,2.1l-0.5,2.1c-0.1,0.6-0.6,1-1.2,1H3.4c-1,0-1.7-0.8-1.5-1.8l10.5-43.9c0.1-0.6,0.6-1,1.2-1h4.9
		C19.2,62.3,19.7,62.7,19.8,63.3z M3.7,106.1c-0.1,0.1-0.1,0.3,0,0.5c0.1,0.2,0.3,0.2,0.5,0l8.3-8.2c0.1-0.2,0.1-0.3,0-0.5
		c-0.2-0.2-0.3-0.2-0.5,0L3.7,106.1z M4.4,110.2h3.3c1.1,0,2.1-0.7,2.3-1.9c0.1-0.7,0.4-1.4,0.5-2.1c0.2-0.7,0.7-1.2,1.5-1.2h8.1
		c0.7,0,1.2,0.3,1.3,0.7v0.1h-7.1c-1.4,0-2.3,0.7-2.6,2.1l-0.5,2.1c-0.1,0.6-0.6,1-1.2,1H5.8C5.1,111.1,4.6,110.7,4.4,110.2z
		 M4.5,102.8c-0.1,0.1-0.1,0.3,0,0.5s0.3,0.1,0.5,0l6.1-6.1c0.1-0.1,0.1-0.3,0-0.5c-0.1-0.1-0.3-0.1-0.5,0L4.5,102.8z M5.3,99.5
		c-0.1,0.1-0.1,0.3,0,0.5s0.3,0.1,0.5,0l4.9-4.9c0.1-0.1,0.1-0.3,0-0.5c-0.2-0.1-0.3-0.1-0.5,0L5.3,99.5z M5.3,107.1
		c-0.1,0.1-0.1,0.3,0,0.5c0.2,0.1,0.3,0.1,0.5,0l2.7-2.7c0.1-0.1,0.1-0.3,0-0.5c-0.1-0.1-0.3-0.1-0.5,0L5.3,107.1z M6.1,96.1
		c-0.1,0.1-0.1,0.3,0,0.5c0.1,0.1,0.3,0.1,0.5,0l4.9-4.9c0.1-0.1,0.1-0.3,0-0.5c-0.2-0.1-0.3-0.1-0.5,0L6.1,96.1z M6.9,92.8
		c-0.1,0.1-0.2,0.3,0,0.5c0.1,0.1,0.3,0.1,0.5,0l4.9-4.9c0.1-0.2,0.1-0.3,0-0.5c-0.1-0.2-0.3-0.2-0.5,0L6.9,92.8z M7.7,89.4
		c-0.1,0.2-0.1,0.3,0,0.5C7.8,90,8,90,8.2,89.8L13,85c0.1-0.1,0.1-0.3,0-0.5c-0.1-0.1-0.3-0.1-0.5,0L7.7,89.4z M8.5,86
		c-0.1,0.1-0.1,0.3,0,0.5c0.1,0.2,0.3,0.2,0.5,0l11.8-11.8c0.1-0.1,0.1-0.3,0-0.5c-0.1-0.1-0.3-0.1-0.5,0L8.5,86z M9.3,82.7
		c-0.1,0.1-0.1,0.3,0,0.5c0.1,0.1,0.3,0.1,0.5,0l10.6-10.6c0.1-0.1,0.1-0.3,0-0.5c-0.1-0.1-0.3-0.1-0.5,0L9.3,82.7z M9.8,102.5
		c-0.1,0.1-0.1,0.3,0,0.5c0.1,0.2,0.3,0.2,0.5,0l4.2-4.2c0.2-0.1,0.2-0.3,0-0.5c-0.1-0.1-0.3-0.1-0.5,0L9.8,102.5z M10.1,79.4
		c-0.2,0.1-0.2,0.3,0,0.5c0.1,0.1,0.3,0.1,0.5,0l9.3-9.3c0.1-0.1,0.1-0.3,0-0.5c-0.2-0.1-0.3-0.1-0.5,0L10.1,79.4z M10.9,76
		c-0.2,0.1-0.2,0.3,0,0.5c0.1,0.1,0.3,0.1,0.5,0l7.9-8c0.1-0.1,0.2-0.3,0-0.5c-0.1-0.1-0.3-0.1-0.5,0L10.9,76z M11.7,72.7
		c-0.2,0.1-0.2,0.3,0,0.5c0.1,0.1,0.3,0.1,0.5,0l6.7-6.7c0.1-0.2,0.1-0.3,0-0.5c-0.2-0.2-0.3-0.2-0.5,0L11.7,72.7z M14.4,96.8h3.5
		c1.7,0,2.5-1,2.1-2.7l-2.4-9.7c-0.6-2.3-2.3-2.3-2.9,0l-2.3,9.7C11.9,95.8,12.7,96.8,14.4,96.8z M12.5,69.3c-0.2,0.2-0.2,0.3,0,0.5
		c0.1,0.1,0.3,0.1,0.5,0l5.3-5.4c0.2-0.1,0.2-0.3,0-0.5c-0.1-0.2-0.3-0.2-0.5,0L12.5,69.3z M13,101.9c-0.2,0.1-0.2,0.3,0,0.5
		c0.1,0.1,0.3,0.1,0.5,0l3.6-3.6c0.1-0.1,0.1-0.3,0-0.5c-0.2-0.1-0.3-0.1-0.5,0L13,101.9z M13.3,65.9c-0.2,0.2-0.2,0.3,0,0.5
		c0.1,0.2,0.3,0.2,0.5,0l2.1-2.1c0.1-0.1,0.1-0.3,0-0.5c-0.1-0.1-0.3-0.1-0.5,0L13.3,65.9z M15.8,84.7c0.1-0.5,0.3-0.9,0.3-0.9
		s0.2,0.3,0.4,0.9v-0.1l0.4,1.8l-2.2,9.1h-0.3c-0.8,0-1.1-0.5-0.9-1.3C14.1,91.3,15,87.8,15.8,84.7z M15.6,101.9
		c-0.2,0.1-0.1,0.3,0,0.5c0.1,0.1,0.3,0.1,0.5,0l4.3-4.3c0.1-0.1,0.1-0.3,0-0.5c-0.1-0.1-0.3-0.1-0.5,0L15.6,101.9z M16.4,80.7
		c-0.1,0.1-0.1,0.3,0,0.5c0.2,0.1,0.3,0.1,0.5,0l4.5-4.4c0.1-0.2,0.1-0.3,0-0.5c-0.2-0.2-0.3-0.2-0.5,0L16.4,80.7z M18.1,81.6
		c-0.1,0.1-0.2,0.3,0,0.5c0.1,0.1,0.3,0.1,0.5,0l3.3-3.3c0.1-0.2,0.1-0.3,0-0.5c-0.1-0.2-0.3-0.2-0.5,0L18.1,81.6z M18.1,101.9
		c-0.1,0.1-0.1,0.3,0,0.5c0.1,0.1,0.3,0.1,0.5,0l7.1-7.1c0.1-0.1,0.1-0.3,0-0.5c-0.2-0.1-0.3-0.1-0.5,0L18.1,101.9z M18.5,63.8
		c-0.2-0.2-0.3-0.3-0.3-0.2L18.5,63.8z M19,83.2c-0.2,0.1-0.2,0.3,0,0.5c0.1,0.1,0.3,0.1,0.5,0l2.8-2.9c0.2-0.1,0.2-0.3,0-0.5
		c-0.1-0.1-0.3-0.1-0.5,0L19,83.2z M19.5,85.2c-0.2,0.1-0.2,0.3,0,0.5c0.1,0.2,0.3,0.2,0.5,0l2.8-2.8c0.1-0.1,0.1-0.3,0-0.5
		c-0.2-0.1-0.3-0.1-0.5,0L19.5,85.2z M20,87.3c-0.1,0.1-0.1,0.3,0,0.5c0.2,0.1,0.3,0.1,0.5,0l2.8-2.8c0.1-0.1,0.1-0.3,0-0.5
		c-0.1-0.1-0.3-0.1-0.5,0L20,87.3z M20.5,89.3c-0.1,0.1-0.1,0.3,0,0.5c0.1,0.2,0.3,0.2,0.5,0l2.7-2.7c0.2-0.1,0.1-0.3,0-0.5
		c-0.1-0.1-0.3-0.1-0.5,0L20.5,89.3z M20.7,101.9c-0.1,0.1-0.1,0.3,0,0.5c0.1,0.2,0.3,0.2,0.5,0l5.1-5.1c0.1-0.1,0.1-0.3,0-0.5
		s-0.3-0.1-0.5,0L20.7,101.9z M21,96.5c-0.1,0.1-0.1,0.3,0,0.5c0.1,0.1,0.3,0.1,0.5,0l3.7-3.8c0.2-0.1,0.2-0.3,0-0.5
		c-0.1-0.1-0.3-0.1-0.5,0L21,96.5z M21.1,91.4c-0.2,0.1-0.2,0.3,0,0.5c0.1,0.1,0.3,0.1,0.5,0l2.7-2.7c0.1-0.2,0.1-0.3,0-0.5
		c-0.2-0.2-0.3-0.2-0.5,0L21.1,91.4z M25.7,110.2h3.1c1.8,0,2.9-1.4,2.6-3.1L21.2,64.4c0.5,0.1,0.8,0.5,0.9,0.9l10.5,43.9
		c0.2,1-0.5,1.8-1.5,1.8h-4.5C26.1,110.9,25.9,110.6,25.7,110.2z M21.5,93.5c-0.1,0.1-0.2,0.3,0,0.5c0.1,0.1,0.3,0.1,0.5,0l2.7-2.8
		c0.1-0.1,0.1-0.3,0-0.5c-0.1-0.1-0.3-0.1-0.5,0L21.5,93.5z M22.5,102.6c-0.1,0.1-0.1,0.3,0,0.5c0.1,0.1,0.3,0.1,0.5,0l3.7-3.7
		c0.2-0.1,0.2-0.3,0-0.5c-0.1-0.1-0.3-0.1-0.5,0L22.5,102.6z M23.8,103.9c-0.2,0.1-0.2,0.3,0,0.5c0.1,0.1,0.3,0.1,0.5,0l2.9-2.9
		c0.1-0.2,0.1-0.3,0-0.5c-0.1-0.2-0.3-0.2-0.5,0L23.8,103.9z M24.5,105.8c-0.1,0.1-0.1,0.3,0,0.5c0.1,0.1,0.3,0.1,0.5,0l2.7-2.8
		c0.2-0.1,0.2-0.3,0-0.5c-0.1-0.1-0.3-0.1-0.5,0L24.5,105.8z M25.7,107.1c-0.1,0.1-0.1,0.3,0,0.5c0.1,0.1,0.3,0.1,0.5,0l2-2
		c0.1-0.1,0.1-0.3,0-0.5c-0.2-0.1-0.3-0.1-0.5,0L25.7,107.1z M28.3,107.5c0.1,0.1,0.3,0.2,0.4,0.1c0.1-0.1,0.1-0.3,0-0.5
		c-0.1-0.1-0.3-0.1-0.5,0C28.1,107.3,28.1,107.4,28.3,107.5z"/>
	<path class="st1" d="M48,61.5c7.1,0,11.8,4.8,11.8,12v4.2c0,0.7-0.6,1.3-1.3,1.3h-4.7c-0.7,0-1.3-0.6-1.3-1.3v-4.2
		c0-2.7-1.8-4.6-4.5-4.6c-2.7,0-4.6,1.9-4.6,4.7v24.3c0,2.8,1.9,4.7,4.6,4.7c2.7,0,4.5-1.9,4.5-4.6v-4.2c0-0.7,0.6-1.3,1.3-1.3h4.7
		c0.7,0,1.3,0.6,1.3,1.3v4.2c0,7.1-4.7,12-11.8,12c-7,0-11.8-4.7-12-11.9V73.4C36,66.3,40.8,61.5,48,61.5z M37.6,72.9
		c-0.1,0.1-0.1,0.3,0,0.5c0.1,0.1,0.3,0.1,0.5,0l9.9-9.9c0.1-0.1,0.1-0.3,0-0.5c-0.2-0.1-0.3-0.1-0.5,0L37.6,72.9z M37.6,75.5
		c-0.1,0.1-0.1,0.3,0,0.5c0.1,0.1,0.3,0.1,0.5,0l4.1-4.1c0.1-0.1,0.1-0.3,0-0.5c-0.1-0.1-0.3-0.1-0.5,0L37.6,75.5z M37.6,78
		c-0.1,0.1-0.1,0.3,0,0.5c0.1,0.1,0.3,0.1,0.5,0l3.8-3.8c0.1-0.1,0.1-0.3,0-0.5c-0.1-0.1-0.3-0.1-0.5,0L37.6,78z M37.6,80.6
		c-0.1,0.2-0.1,0.3,0,0.5c0.1,0.2,0.3,0.2,0.5,0l3.8-3.8c0.1-0.1,0.1-0.3,0-0.5c-0.1-0.1-0.3-0.1-0.5,0L37.6,80.6z M37.6,83.2
		c-0.1,0.1-0.1,0.3,0,0.5c0.1,0.1,0.3,0.1,0.5,0l3.8-3.8c0.1-0.2,0.1-0.3,0-0.5c-0.1-0.2-0.3-0.2-0.5,0L37.6,83.2z M37.6,85.7
		c-0.1,0.1-0.1,0.3,0,0.5c0.1,0.1,0.3,0.1,0.5,0l3.8-3.8c0.1-0.1,0.1-0.3,0-0.5c-0.1-0.2-0.3-0.2-0.5,0L37.6,85.7z M37.6,88.2
		c-0.1,0.1-0.1,0.3,0,0.5c0.1,0.1,0.3,0.1,0.5,0l3.8-3.8c0.1-0.1,0.1-0.3,0-0.5c-0.1-0.1-0.3-0.1-0.5,0L37.6,88.2z M37.6,90.8
		c-0.1,0.1-0.1,0.3,0,0.5c0.1,0.1,0.3,0.1,0.5,0l3.8-3.8c0.1-0.1,0.1-0.3,0-0.5c-0.1-0.1-0.3-0.1-0.5,0L37.6,90.8z M37.6,93.3
		c-0.1,0.1-0.1,0.3,0,0.5c0.1,0.2,0.3,0.2,0.5,0l3.8-3.8c0.1-0.1,0.1-0.3,0-0.5c-0.1-0.1-0.3-0.1-0.5,0L37.6,93.3z M37.6,95.9
		c-0.1,0.2-0.1,0.3,0,0.5c0.1,0.2,0.3,0.2,0.5,0l3.8-3.8c0.1-0.1,0.1-0.3,0-0.5c-0.1-0.1-0.3-0.1-0.5,0L37.6,95.9z M37.6,98.4
		c-0.2,0.1-0.2,0.3,0,0.5c0.1,0.1,0.3,0.1,0.5,0l3.7-3.7c0.1-0.2,0.1-0.3,0-0.5c-0.1-0.2-0.3-0.2-0.5,0L37.6,98.4z M37.9,70.1
		c-0.1,0.1-0.1,0.3,0,0.5c0.1,0.1,0.3,0.1,0.5,0l6.7-6.7c0.1-0.1,0.1-0.3,0-0.5c-0.2-0.1-0.3-0.1-0.5,0L37.9,70.1z M38,100.6
		c-0.1,0.1-0.1,0.3,0,0.5c0.2,0.1,0.3,0.1,0.5,0l3.4-3.4c0.1-0.1,0.1-0.3,0-0.5s-0.3-0.1-0.5,0L38,100.6z M38.7,102.4
		c-0.2,0.2-0.2,0.3,0,0.5c0.1,0.2,0.3,0.2,0.5,0L42,100c0.1-0.1,0.1-0.3,0-0.5c-0.2-0.1-0.3-0.1-0.5,0L38.7,102.4z M39.6,104
		c-0.1,0.1-0.1,0.3,0,0.5c0.1,0.1,0.3,0.1,0.5,0l2.7-2.7c0.1-0.1,0.1-0.3,0-0.5c-0.2-0.1-0.3-0.1-0.5,0L39.6,104z M40.8,105.3
		c-0.1,0.1-0.1,0.3,0,0.5c0.2,0.1,0.3,0.1,0.5,0l2.7-2.6c0.1-0.1,0.1-0.3,0-0.5c-0.2-0.1-0.3-0.1-0.5,0L40.8,105.3z M42.3,106.4
		c-0.1,0.1-0.1,0.3,0,0.5c0.2,0.2,0.3,0.2,0.5,0l2.8-2.7c0.1-0.1,0.1-0.3,0-0.5c-0.1-0.2-0.3-0.2-0.5,0L42.3,106.4z M44,107.2
		c-0.1,0.2-0.1,0.3,0,0.5c0.2,0.2,0.3,0.2,0.5,0l3.2-3.1c0.1-0.1,0.1-0.3,0-0.5c-0.1-0.1-0.3-0.1-0.5,0L44,107.2z M45.8,100.7
		c-0.8-0.6-1.3-1.6-1.3-2.9V73.5c0-2.1,1.4-3.5,3.5-3.5c0.9,0,1.7,0.3,2.3,0.9c-2.7,0-4.6,1.9-4.6,4.7v24.3
		C45.7,100.2,45.7,100.5,45.8,100.7z M44.6,110.7c1.1,0.2,2.1,0.3,3.3,0.3c7.7,0,13-5.3,13-13.1v-3.5c0.7,0.1,1.2,0.7,1.2,1.3v4.2
		c0,7.1-4.7,12-11.8,12C48.2,111.9,46.3,111.5,44.6,110.7z M45.8,67.2c-0.1,0.1-0.1,0.3,0,0.5c0.2,0.1,0.3,0.1,0.5,0l3.9-3.9
		c0.1-0.1,0.1-0.3,0-0.5c-0.1-0.1-0.3-0.1-0.5,0L45.8,67.2z M46.1,107.7c-0.1,0.1-0.1,0.3,0,0.5c0.1,0.1,0.3,0.1,0.5,0l4.3-4.3
		c0.1-0.1,0.1-0.3,0-0.5c-0.1-0.1-0.3-0.1-0.5,0L46.1,107.7z M48.5,107.9c-0.1,0.1-0.1,0.3,0,0.5c0.2,0.1,0.3,0.1,0.5,0l9.3-9.3
		c0.1-0.1,0.1-0.3,0-0.5c-0.2-0.1-0.3-0.1-0.5,0L48.5,107.9z M48.7,66.9c-0.2,0.2-0.2,0.3,0,0.5c0.1,0.1,0.3,0.1,0.5-0.1l3.1-3.1
		c0.1-0.1,0.1-0.3,0-0.5c-0.2-0.1-0.3-0.1-0.5,0L48.7,66.9z M50.7,67.4c-0.1,0.2-0.1,0.3,0,0.5c0.1,0.2,0.3,0.2,0.5,0l2.7-2.7
		c0.1-0.1,0.1-0.3,0-0.5c-0.1-0.1-0.3-0.1-0.5,0L50.7,67.4z M51.6,107.3c-0.1,0.1-0.1,0.3,0,0.5c0.2,0.1,0.3,0.1,0.5,0l5.5-5.6
		c0.2-0.1,0.2-0.3,0-0.5c-0.1-0.1-0.3-0.1-0.5,0L51.6,107.3z M52.2,68.5c-0.2,0.1-0.2,0.3,0,0.5c0.1,0.1,0.3,0.1,0.5,0l2.6-2.7
		c0.1-0.1,0.2-0.3,0-0.5c-0.1-0.1-0.3-0.1-0.5,0L52.2,68.5z M53.2,100.5c-0.1,0.2-0.1,0.3,0,0.5c0.2,0.2,0.3,0.2,0.5,0l4.5-4.5
		c0.1-0.1,0.1-0.3,0-0.5c-0.1-0.1-0.3-0.1-0.5,0L53.2,100.5z M53.3,69.9c-0.2,0.1-0.2,0.3,0,0.5c0.1,0.1,0.3,0.1,0.5,0l2.7-2.7
		c0.2-0.1,0.2-0.3,0-0.5c-0.1-0.1-0.3-0.1-0.5,0L53.3,69.9z M53.9,71.9c-0.1,0.1-0.1,0.3,0,0.5c0.1,0.1,0.3,0.1,0.5,0l3-3
		c0.1-0.1,0.1-0.3,0-0.5c-0.1-0.1-0.3-0.1-0.5,0L53.9,71.9z M54,74.3c-0.1,0.1-0.1,0.3,0,0.5c0.1,0.1,0.3,0.1,0.5,0l3.5-3.5
		c0.1-0.1,0.1-0.3,0-0.5c-0.1-0.1-0.3-0.1-0.5,0L54,74.3z M54,76.9c-0.1,0.1-0.1,0.3,0,0.5c0.1,0.2,0.3,0.2,0.5,0l3.8-3.8
		c0.1-0.1,0.1-0.3,0-0.5c-0.1-0.1-0.3-0.1-0.5,0L54,76.9z M54,97.3c-0.1,0.1-0.1,0.3,0,0.5c0.1,0.1,0.3,0.1,0.5,0l3.4-3.4
		c0.1-0.1,0.1-0.3,0-0.5c-0.2-0.1-0.3-0.1-0.5,0L54,97.3z M54,94.8c-0.1,0.1-0.1,0.3,0,0.5c0.1,0.1,0.3,0.1,0.5,0l0.9-0.9
		c0.1-0.1,0.1-0.3,0-0.5c-0.2-0.1-0.3-0.1-0.5,0L54,94.8z M54.9,80.2h3.6c1.3,0,2.5-1.1,2.5-2.5v-4.2c0-1.9-0.3-3.7-0.9-5.2
		c1.3,1.9,2.1,4.4,2.1,7.2v4.2c0,0.7-0.6,1.3-1.3,1.3h-4.7C55.5,81,55.1,80.7,54.9,80.2z M56.4,77c-0.1,0.1-0.1,0.3,0,0.5
		c0.2,0.1,0.3,0.1,0.5,0l1.3-1.4c0.1-0.1,0.1-0.3,0-0.5c-0.1-0.1-0.3-0.1-0.5,0L56.4,77z"/>
	<path class="st1" d="M78,61.5c6.8,0,11.4,4.8,11.4,12v2.3c0,0.7-0.6,1.3-1.3,1.3h-4.7c-0.7,0-1.3-0.6-1.3-1.3v-2.3
		c0-2.7-1.6-4.6-4-4.6c-2.5,0-4.1,1.9-4.1,4.6v24.4c0,2.7,1.7,4.6,4.1,4.6c2.4,0,4-1.9,4-4.6v-1.4c0-1.9-0.3-3-1-3h-1.1
		c-0.7,0-1.3-0.6-1.3-1.3v-4.7c0-0.7,0.6-1.3,1.3-1.3H88c0.7,0,1.3,0.6,1.3,1.3v10.4c0,7.1-4.5,12-11.4,12
		c-6.7,0-11.4-4.7-11.5-11.9V73.4C66.6,66.3,71.2,61.5,78,61.5z M68,72.2c-0.1,0.2-0.1,0.3,0,0.5c0.2,0.2,0.3,0.2,0.5,0l9.1-9.1
		c0.1-0.1,0.1-0.3,0-0.5c-0.2-0.1-0.3-0.1-0.5,0L68,72.2z M68,74.8c-0.1,0.1-0.1,0.3,0,0.5c0.1,0.1,0.3,0.1,0.5,0l4.5-4.5
		c0.2-0.2,0.2-0.3,0-0.5c-0.1-0.2-0.3-0.2-0.5,0L68,74.8z M68,77.4c-0.1,0.1-0.1,0.3,0,0.5c0.1,0.1,0.3,0.1,0.5,0l3.8-3.8
		c0.1-0.1,0.1-0.3,0-0.5c-0.1-0.1-0.3-0.1-0.5,0L68,77.4z M68,79.9c-0.1,0.2-0.1,0.3,0,0.5c0.1,0.2,0.3,0.2,0.5,0l3.8-3.8
		c0.1-0.1,0.1-0.3,0-0.5c-0.1-0.1-0.3-0.1-0.5,0L68,79.9z M68,82.5c-0.1,0.1-0.1,0.3,0,0.5c0.1,0.1,0.3,0.1,0.5,0l3.8-3.8
		c0.1-0.2,0.1-0.3,0-0.5c-0.1-0.2-0.3-0.2-0.5,0L68,82.5z M68,85c-0.1,0.1-0.1,0.3,0,0.5c0.1,0.1,0.3,0.1,0.5,0l3.8-3.8
		c0.1-0.1,0.1-0.3,0-0.5c-0.1-0.2-0.3-0.2-0.5,0L68,85z M68,87.6c-0.1,0.1-0.1,0.3,0,0.5c0.1,0.1,0.3,0.1,0.5,0l3.8-3.8
		c0.1-0.1,0.1-0.3,0-0.5c-0.1-0.1-0.3-0.1-0.5,0L68,87.6z M68,90.1c-0.1,0.1-0.1,0.3,0,0.5c0.1,0.1,0.3,0.1,0.5,0l3.8-3.8
		c0.1-0.1,0.1-0.3,0-0.5c-0.1-0.1-0.3-0.1-0.5,0L68,90.1z M68,92.6c-0.1,0.1-0.1,0.3,0,0.5c0.1,0.2,0.3,0.2,0.5,0l3.8-3.8
		c0.1-0.1,0.1-0.3,0-0.5c-0.1-0.1-0.3-0.1-0.5,0L68,92.6z M68,95.2c-0.1,0.2-0.1,0.3,0,0.5c0.1,0.2,0.3,0.2,0.5,0l3.8-3.8
		c0.1-0.1,0.1-0.3,0-0.5c-0.1-0.1-0.3-0.1-0.5,0L68,95.2z M68,97.8c-0.1,0.1-0.1,0.3,0,0.5c0.1,0.1,0.3,0.1,0.5,0l3.8-3.8
		c0.1-0.2,0.1-0.3,0-0.5c-0.1-0.2-0.3-0.2-0.5,0L68,97.8z M68.3,100.1c-0.1,0.1-0.1,0.3,0,0.5c0.1,0.1,0.3,0.1,0.5,0l3.5-3.5
		c0.1-0.1,0.1-0.3,0-0.5c-0.1-0.1-0.3-0.1-0.5,0L68.3,100.1z M68.7,69.1c-0.1,0.1-0.1,0.3,0,0.5c0.1,0.1,0.3,0.1,0.5,0l5.5-5.5
		c0.1-0.1,0.2-0.3,0-0.5c-0.1-0.1-0.3-0.1-0.5,0L68.7,69.1z M68.9,102c-0.1,0.1-0.1,0.3,0,0.5c0.1,0.1,0.3,0.1,0.5,0l3-3
		c0.1-0.1,0.1-0.3,0-0.5s-0.3-0.1-0.5,0L68.9,102z M69.7,103.7c-0.1,0.1-0.1,0.3,0,0.5c0.1,0.1,0.3,0.1,0.5,0l2.7-2.7
		c0.1-0.2,0.1-0.3,0-0.5c-0.2-0.2-0.3-0.2-0.5,0L69.7,103.7z M70.9,105.1c-0.1,0.1-0.1,0.3,0,0.5c0.1,0.2,0.3,0.2,0.5,0l2.6-2.6
		c0.1-0.1,0.1-0.3,0-0.5c-0.1-0.1-0.3-0.1-0.5,0L70.9,105.1z M72.3,106.3c-0.1,0.1-0.1,0.3,0,0.5c0.1,0.1,0.3,0.1,0.5,0l2.7-2.7
		c0.2-0.1,0.2-0.3,0-0.5c-0.1-0.1-0.3-0.1-0.5,0L72.3,106.3z M74,107.1c-0.1,0.1-0.1,0.3,0,0.5c0.1,0.1,0.3,0.1,0.5,0l3.1-3.1
		c0.1-0.1,0.1-0.3,0-0.5c-0.1-0.2-0.3-0.2-0.5,0L74,107.1z M74.9,110.7c1,0.2,2,0.3,3.1,0.3c7.5,0,12.5-5.3,12.5-13.1v-9.8
		c0.7,0.1,1.2,0.7,1.2,1.3v10.4c0,7.1-4.5,12-11.4,12C78.3,111.9,76.5,111.5,74.9,110.7z M76.2,100.9c-0.8-0.6-1.3-1.6-1.3-2.9V73.5
		c0-2.1,1.2-3.5,3-3.5c0.8,0,1.5,0.3,2,0.9c-2.3,0.2-3.8,2-3.8,4.6v24.4C76.2,100.3,76.2,100.5,76.2,100.9z M75.4,67.4
		c-0.2,0.1-0.1,0.3,0,0.5c0.1,0.2,0.3,0.2,0.5,0l4.1-4.1c0.1-0.1,0.1-0.3,0-0.5c-0.1-0.2-0.3-0.2-0.5,0L75.4,67.4z M76,107.7
		c-0.2,0.1-0.2,0.3,0,0.5c0.1,0.2,0.3,0.2,0.5,0l4.3-4.3c0.1-0.1,0.1-0.3,0-0.5c-0.1-0.2-0.3-0.2-0.5,0L76,107.7z M78.3,107.9
		c-0.1,0.1-0.1,0.3,0,0.5c0.1,0.1,0.3,0.1,0.5,0l9-8.9c0.1-0.2,0.1-0.3,0-0.5c-0.2-0.2-0.3-0.2-0.5,0L78.3,107.9z M78.5,66.9
		c-0.1,0.1-0.1,0.3,0,0.5c0.1,0.2,0.3,0.2,0.5,0l3.1-3.1c0.1-0.1,0.1-0.3,0-0.5c-0.2-0.1-0.3-0.1-0.5,0L78.5,66.9z M80.1,90.8
		c-0.1,0.1-0.1,0.3,0,0.5c0.1,0.1,0.3,0.1,0.5,0l3.1-3.1c0.1-0.1,0.1-0.3,0-0.5c-0.1-0.1-0.3-0.1-0.5,0L80.1,90.8z M80.1,88.2
		c-0.1,0.1-0.1,0.3,0,0.5c0.1,0.1,0.3,0.1,0.5,0l0.5-0.5c0.1-0.1,0.1-0.3,0-0.5c-0.1-0.1-0.3-0.1-0.5,0L80.1,88.2z M80.5,67.4
		c-0.1,0.2-0.1,0.3,0,0.5c0.1,0.2,0.3,0.2,0.5,0.1l2.7-2.7c0.1-0.1,0.1-0.3,0-0.5c-0.2-0.1-0.3-0.1-0.5,0L80.5,67.4z M81.4,107.3
		c-0.1,0.1-0.1,0.3,0,0.5c0.1,0.1,0.3,0.1,0.5,0l5.3-5.3c0.1-0.1,0.1-0.3,0-0.5c-0.1-0.1-0.3-0.1-0.5,0L81.4,107.3z M81.8,91.6
		c-0.1,0.1-0.1,0.3,0,0.5c0.2,0.1,0.3,0.1,0.5,0l3.9-3.9c0.1-0.1,0.1-0.3,0-0.5s-0.3-0.1-0.5,0L81.8,91.6z M82,68.5
		c-0.2,0.1-0.2,0.3,0,0.5c0.1,0.1,0.3,0.1,0.5,0l2.6-2.7c0.1-0.1,0.2-0.3,0-0.5c-0.1-0.1-0.3-0.1-0.5,0L82,68.5z M82.6,101
		c-0.1,0.1-0.1,0.3,0,0.5c0.1,0.1,0.3,0.1,0.5,0l4.7-4.7c0.1-0.1,0.1-0.3,0-0.5c-0.1-0.1-0.3-0.1-0.5,0L82.6,101z M83,70.1
		c-0.2,0.1-0.2,0.3,0,0.5c0.1,0.1,0.3,0.1,0.5,0l2.7-2.7c0.1-0.1,0.1-0.3,0-0.5c-0.1-0.1-0.3-0.1-0.5,0L83,70.1z M83,92.9
		c-0.1,0.1-0.1,0.3,0,0.5c0.1,0.2,0.3,0.2,0.5,0l4.3-4.3c0.1-0.1,0.1-0.3,0-0.5c-0.1-0.1-0.3-0.1-0.5,0L83,92.9z M83.4,72.1
		c-0.1,0.1-0.1,0.3,0,0.5c0.2,0.1,0.3,0.1,0.5,0l3.1-3.1c0.2-0.2,0.2-0.3,0-0.5c-0.1-0.1-0.3-0.1-0.5,0L83.4,72.1z M83.5,95.1
		c-0.2,0.1-0.2,0.3,0,0.5c0.1,0.1,0.3,0.1,0.5,0l3.8-3.8c0.1-0.2,0.1-0.3,0-0.5c-0.1-0.2-0.3-0.2-0.5,0L83.5,95.1z M83.5,74.6
		c-0.1,0.1-0.1,0.3,0,0.5c0.1,0.1,0.3,0.1,0.5,0l3.6-3.6c0.1-0.1,0.1-0.3,0-0.5c-0.2-0.1-0.3-0.1-0.5,0L83.5,74.6z M83.5,97.6
		c-0.1,0.1-0.1,0.3,0,0.5c0.1,0.1,0.3,0.1,0.5,0l3.8-3.8c0.1-0.1,0.1-0.3,0-0.5c-0.1-0.2-0.3-0.2-0.5,0L83.5,97.6z M84.4,78.2H88
		c1.3,0,2.5-1.1,2.5-2.5v-2.3c0-2-0.3-3.8-0.9-5.4c1.3,1.9,2.1,4.5,2.1,7.4v2.3c0,0.7-0.6,1.3-1.3,1.3h-4.7
		C85,79.1,84.6,78.8,84.4,78.2z M85.6,75.1c-0.1,0.1-0.1,0.3,0,0.5c0.2,0.1,0.3,0.1,0.5,0l1.7-1.7c0.1-0.1,0.1-0.3,0-0.5
		c-0.1-0.1-0.3-0.1-0.5,0L85.6,75.1z"/>
	<path class="st1" d="M123.5,61.5c6.5,0,10.9,4.4,10.9,11v3.2c0,6.2-7.4,13.3-11.4,22.6c-0.9,2.1,0.2,3.5,2.4,3.5h7.6
		c0.7,0,1.3,0.6,1.3,1.3v4.7c0,0.7-0.6,1.3-1.3,1.3h-18.3c-0.8,0-1.4-0.6-1.3-1.5c0.7-16,13.4-25.7,13.6-31.9l0.1-3.2
		c0.1-2.5-1.5-4.3-3.5-4.3s-3.5,1.7-3.5,4.3v5.2c0,0.7-0.6,1.3-1.3,1.3H114c-0.7,0-1.3-0.6-1.3-1.3v-5.2
		C112.7,65.9,117,61.5,123.5,61.5z M114.2,73.3c-0.1,0.1-0.1,0.3,0,0.5c0.1,0.1,0.3,0.1,0.5,0l10.2-10.2c0.1-0.1,0.1-0.3,0-0.5
		c-0.2-0.1-0.3-0.1-0.5,0L114.2,73.3z M114.2,75.8c-0.1,0.1-0.1,0.3,0,0.5c0.1,0.1,0.3,0.1,0.5,0l3.8-3.8c0.1-0.1,0.1-0.3,0-0.5
		c-0.1-0.2-0.3-0.2-0.5,0L114.2,75.8z M114.3,70.6c-0.1,0.2-0.1,0.3,0,0.5c0.1,0.2,0.3,0.2,0.5,0l7.5-7.5c0.1-0.1,0.1-0.3,0-0.5
		c-0.2-0.1-0.3-0.1-0.5,0L114.3,70.6z M115.1,105.5c-0.1,0.2-0.1,0.3,0,0.5c0.1,0.2,0.3,0.2,0.5,0l5.7-5.6c0.1-0.2,0.1-0.3,0-0.5
		c-0.2-0.2-0.3-0.2-0.5,0L115.1,105.5z M115.1,80.2h3.6c1.3,0,2.5-1.1,2.5-2.5v-5.2c0-1.9,0.9-3.1,2.3-3.1c0.7,0,1.3,0.3,1.8,0.9
		c-1.8,0.3-2.9,1.9-2.9,4.2v5.2c0,0.7-0.6,1.3-1.3,1.3h-4.7C115.8,81,115.3,80.7,115.1,80.2z M115.5,66.9c-0.2,0.1-0.2,0.3,0,0.5
		c0.1,0.1,0.3,0.1,0.5,0l2.6-2.7c0.2-0.1,0.2-0.3,0-0.5c-0.1-0.1-0.3-0.1-0.5,0L115.5,66.9z M115.6,77c-0.1,0.1-0.1,0.3,0,0.5
		c0.1,0.1,0.3,0.1,0.5,0l2.5-2.5c0.1-0.1,0.1-0.3,0-0.5c-0.1-0.1-0.3-0.1-0.5,0L115.6,77z M115.6,102.5c-0.1,0.1-0.1,0.3,0,0.5
		c0.1,0.1,0.3,0.1,0.5,0l6.2-6.2c0.1-0.1,0.1-0.3,0-0.5c-0.2-0.1-0.3-0.1-0.5,0L115.6,102.5z M115.8,110.2h17.2
		c1.3,0,2.5-1.1,2.5-2.5v-4c0.7,0.1,1.2,0.7,1.2,1.3v4.7c0,0.7-0.6,1.3-1.3,1.3h-18.3C116.5,111.1,116,110.7,115.8,110.2z
		 M116.1,107.1c-0.1,0.1-0.1,0.3,0,0.5c0.2,0.1,0.3,0.1,0.5,0l5.3-5.3c0.1-0.1,0.1-0.3,0-0.5c-0.1-0.1-0.3-0.1-0.5,0L116.1,107.1z
		 M116.5,99.1c-0.1,0.1-0.1,0.3,0,0.5c0.1,0.1,0.3,0.1,0.5,0l8.2-8.2c0.1-0.1,0.1-0.3,0-0.5c-0.1-0.1-0.3-0.1-0.5,0L116.5,99.1z
		 M118.2,94.8c-0.1,0.2-0.1,0.3,0,0.5c0.2,0.2,0.3,0.2,0.5,0l11-10.9c0.1-0.1,0.1-0.3,0-0.5c-0.2-0.1-0.3-0.1-0.5,0L118.2,94.8z
		 M118.7,107.1c-0.2,0.1-0.2,0.3,0,0.5c0.1,0.1,0.3,0.1,0.5,0l4.2-4.2c0.1-0.1,0.1-0.3,0-0.5c-0.2-0.1-0.3-0.1-0.5,0L118.7,107.1z
		 M121.2,107.1c-0.2,0.1-0.1,0.3,0,0.5c0.1,0.1,0.3,0.1,0.5,0l3.8-3.8c0.1-0.1,0.1-0.3,0-0.5c-0.2-0.1-0.3-0.1-0.5,0L121.2,107.1z
		 M121.3,89.2c-0.2,0.1-0.2,0.3,0,0.5c0.1,0.1,0.3,0.1,0.5,0l10.6-10.6c0.1-0.1,0.1-0.3,0-0.5c-0.2-0.1-0.3-0.1-0.5,0L121.3,89.2z
		 M123.8,107.1c-0.1,0.1-0.1,0.3,0,0.5c0.1,0.1,0.3,0.1,0.5,0l3.8-3.8c0.1-0.1,0.1-0.3,0-0.5c-0.1-0.1-0.3-0.1-0.5,0L123.8,107.1z
		 M123.8,66.2c-0.1,0.1-0.1,0.3,0,0.5c0.1,0.1,0.3,0.1,0.5,0l2.6-2.6c0.1-0.1,0.1-0.3,0-0.5s-0.3-0.1-0.5,0L123.8,66.2z
		 M125.2,100.6c-1-0.1-1.5-0.9-1.1-1.9c1.8-4,3.9-7.5,5.8-10.4c3-4.7,5.6-8.7,5.6-12.6v-3.2c0-1.7-0.3-3.3-0.8-4.7
		c1.3,1.8,2,4.1,2,6.7v3.2c0,6.2-7.4,13.3-11.4,22.6C125.3,100.4,125.2,100.5,125.2,100.6z M125.8,66.7c-0.1,0.1-0.1,0.3,0,0.5
		c0.1,0.2,0.3,0.2,0.5,0l2.3-2.3c0.2-0.1,0.1-0.3,0-0.5c-0.1-0.1-0.3-0.1-0.5,0L125.8,66.7z M125.8,82c-0.1,0.1-0.1,0.3,0,0.5
		c0.1,0.2,0.3,0.2,0.5,0l6.5-6.5c0.1-0.1,0.1-0.3,0-0.5c-0.1-0.1-0.3-0.1-0.5,0L125.8,82z M126.3,107.1c-0.1,0.1-0.1,0.3,0,0.5
		s0.3,0.1,0.5,0l3.8-3.8c0.1-0.1,0.1-0.3,0-0.5s-0.3-0.1-0.5,0L126.3,107.1z M127.3,67.9c-0.1,0.1-0.1,0.3,0,0.5
		c0.1,0.2,0.3,0.2,0.5,0l2.4-2.4c0.1-0.1,0.1-0.3,0-0.5c-0.1-0.1-0.3-0.1-0.5,0L127.3,67.9z M128.2,69.5c-0.1,0.2-0.1,0.3,0,0.5
		c0.1,0.2,0.3,0.2,0.5,0l2.7-2.6c0.1-0.1,0.1-0.3,0-0.5c-0.2-0.1-0.3-0.1-0.5,0L128.2,69.5z M128.2,77.2c-0.1,0.1-0.1,0.3,0,0.5
		c0.2,0.1,0.3,0.1,0.5,0l4.1-4.2c0.1-0.1,0.1-0.3,0-0.5c-0.1-0.1-0.3-0.1-0.5,0L128.2,77.2z M128.5,74.3c-0.1,0.1-0.1,0.3,0,0.5
		c0.2,0.1,0.3,0.1,0.5,0l3.7-3.7c0.1-0.1,0.1-0.3,0-0.5c-0.2-0.1-0.3-0.1-0.5,0L128.5,74.3z M128.6,71.7c-0.1,0.1-0.1,0.3,0,0.5
		c0.1,0.1,0.3,0.1,0.5,0l3.1-3.1c0.1-0.1,0.1-0.3,0-0.5c-0.2-0.1-0.3-0.1-0.5,0L128.6,71.7z M128.9,107.1c-0.1,0.1-0.1,0.3,0,0.5
		c0.2,0.1,0.3,0.1,0.5,0l3.5-3.5c0.1-0.1,0.1-0.3,0-0.5c-0.1-0.1-0.3-0.1-0.5,0L128.9,107.1z M131.4,107.1c-0.1,0.1-0.1,0.3,0,0.5
		c0.2,0.1,0.3,0.1,0.5,0l0.9-1c0.1-0.1,0.1-0.3,0-0.5c-0.1-0.1-0.3-0.1-0.5,0L131.4,107.1z"/>
	<path class="st1" d="M151.2,61.5c6.9,0,10.2,3.5,10.2,11v26.6c-0.2,7.3-3.5,10.8-10.2,10.8c-6.9,0-10.2-3.5-10.2-10.8V72.5
		C141.3,65,144.5,61.5,151.2,61.5z M142.6,72.6c-0.1,0.1-0.1,0.3,0,0.5c0.1,0.1,0.3,0.1,0.5,0l4.2-4.2c0.2-0.2,0.2-0.3,0-0.5
		c-0.1-0.1-0.3-0.1-0.5,0L142.6,72.6z M142.6,75.2c-0.1,0.1-0.1,0.3,0,0.5c0.1,0.1,0.3,0.1,0.5,0l3.1-3.1c0.1-0.1,0.1-0.3,0-0.5
		c-0.1-0.1-0.3-0.1-0.5,0L142.6,75.2z M142.6,77.7c-0.1,0.1-0.1,0.3,0,0.5c0.1,0.1,0.3,0.1,0.5,0l3.1-3.1c0.1-0.1,0.1-0.3,0-0.5
		c-0.1-0.1-0.3-0.1-0.5,0L142.6,77.7z M142.6,80.2c-0.1,0.2-0.1,0.3,0,0.5c0.1,0.2,0.3,0.2,0.5,0l3.1-3.1c0.1-0.1,0.1-0.3,0-0.5
		c-0.1-0.1-0.3-0.1-0.5,0L142.6,80.2z M142.6,82.8c-0.1,0.1-0.1,0.3,0,0.5c0.1,0.1,0.3,0.1,0.5,0l3.1-3.1c0.1-0.2,0.1-0.3,0-0.5
		c-0.1-0.2-0.3-0.2-0.5,0L142.6,82.8z M142.6,85.4c-0.1,0.1-0.1,0.3,0,0.5c0.1,0.1,0.3,0.1,0.5,0l3.1-3.1c0.1-0.1,0.1-0.3,0-0.5
		c-0.1-0.2-0.3-0.2-0.5,0L142.6,85.4z M142.6,87.9c-0.1,0.1-0.1,0.3,0,0.5c0.1,0.1,0.3,0.1,0.5,0l3.1-3.1c0.1-0.1,0.1-0.3,0-0.5
		c-0.1-0.1-0.3-0.1-0.5,0L142.6,87.9z M142.6,90.4c-0.1,0.1-0.1,0.3,0,0.5c0.1,0.1,0.3,0.1,0.5,0l3.1-3.1c0.1-0.1,0.1-0.3,0-0.5
		c-0.1-0.1-0.3-0.1-0.5,0L142.6,90.4z M142.6,93c-0.1,0.1-0.1,0.3,0,0.5c0.1,0.2,0.3,0.2,0.5,0l3.1-3.1c0.1-0.1,0.1-0.3,0-0.5
		c-0.1-0.1-0.3-0.1-0.5,0L142.6,93z M142.6,95.5c-0.1,0.2-0.1,0.3,0,0.5c0.1,0.2,0.3,0.2,0.5,0l3.1-3.1c0.1-0.1,0.1-0.3,0-0.5
		c-0.1-0.1-0.3-0.1-0.5,0L142.6,95.5z M142.6,98.1c-0.1,0.1-0.1,0.3,0,0.5c0.1,0.1,0.3,0.1,0.5,0l3.1-3.1c0.1-0.2,0.1-0.3,0-0.5
		c-0.1-0.2-0.3-0.2-0.5,0L142.6,98.1z M142.7,100.5c-0.1,0.2-0.1,0.3,0,0.5c0.2,0.2,0.3,0.2,0.5,0l3.1-3c0.1-0.1,0.1-0.3,0-0.5
		c-0.1-0.1-0.3-0.1-0.5,0L142.7,100.5z M142.7,69.9c-0.1,0.1-0.1,0.3,0,0.5c0.2,0.1,0.3,0.1,0.5,0l6.7-6.7c0.1-0.2,0.1-0.3,0-0.5
		c-0.1-0.2-0.3-0.2-0.5,0L142.7,69.9z M143.1,102.7c-0.1,0.1-0.1,0.3,0,0.5c0.2,0.1,0.3,0.1,0.5,0l2.7-2.7c0.1-0.1,0.1-0.3,0-0.5
		c-0.2-0.1-0.3-0.1-0.5,0L143.1,102.7z M143.8,66.3c-0.2,0.1-0.2,0.3,0,0.5c0.1,0.1,0.3,0.1,0.5,0l2.3-2.4c0.1-0.1,0.1-0.3,0-0.5
		c-0.1-0.1-0.3-0.1-0.5,0L143.8,66.3z M143.8,104.5c-0.1,0.1-0.1,0.3,0,0.5c0.2,0.1,0.3,0.1,0.5,0l2.5-2.5c0.1-0.1,0.1-0.3,0-0.5
		c-0.1-0.1-0.3-0.1-0.5,0L143.8,104.5z M145,105.9c-0.1,0.1-0.1,0.3,0,0.5c0.2,0.1,0.3,0.1,0.5,0l2.4-2.3c0.1-0.1,0.1-0.3,0-0.5
		c-0.2-0.1-0.3-0.1-0.5,0L145,105.9z M146.5,107c-0.1,0.1-0.1,0.3,0,0.5c0.1,0.1,0.3,0.1,0.5,0l2.5-2.5c0.1-0.1,0.2-0.3,0-0.5
		c-0.1-0.1-0.3-0.1-0.5,0L146.5,107z M151.2,103.2c2.4,0,3.5-1.3,3.5-4.1V72.5c0-2.9-1.1-4.3-3.5-4.3c-2.3,0-3.5,1.3-3.5,4.3v26.6
		C147.8,101.9,148.9,103.2,151.2,103.2z M147.8,110.7c1.1,0.2,2.1,0.3,3.4,0.3c7.5,0,11.2-3.8,11.4-11.9V72.5c0-2.1-0.3-4-0.7-5.6
		c1.3,1.8,1.9,4.3,1.9,7.6v26.6c-0.2,7.3-3.5,10.8-10.2,10.8C151.2,111.9,149.4,111.5,147.8,110.7z M148.2,67.1
		c-0.2,0.1-0.2,0.3,0,0.5c0.1,0.2,0.3,0.2,0.5,0l3.9-3.9c0.1-0.1,0.1-0.3,0-0.5c-0.1-0.2-0.3-0.2-0.5,0L148.2,67.1z M148.4,107.6
		c-0.2,0.1-0.1,0.3,0,0.5c0.1,0.1,0.3,0.1,0.5,0l2.9-2.9c0.1-0.1,0.1-0.3,0-0.5c-0.1-0.2-0.3-0.2-0.5,0L148.4,107.6z M148.9,72.5
		c0-2.1,0.7-3.1,2.3-3.1c0.9,0,1.5,0.3,1.9,0.9c-2,0.2-3,1.5-3,4.3v27.4c-0.8-0.3-1.2-1.3-1.2-2.7V72.5z M150.7,107.9
		c-0.1,0.1-0.1,0.3,0,0.5c0.1,0.1,0.3,0.1,0.5,0l8.8-8.7c0.1-0.1,0.1-0.3,0-0.5c-0.1-0.1-0.3-0.1-0.5,0L150.7,107.9z M151.6,66.2
		c-0.1,0.1-0.1,0.3,0,0.5c0.1,0.1,0.3,0.1,0.5,0l2.7-2.7c0.1-0.1,0.1-0.3,0-0.5c-0.2-0.1-0.3-0.1-0.5,0L151.6,66.2z M153.4,107.7
		c-0.1,0.1-0.1,0.3,0,0.5c0.2,0.1,0.3,0.1,0.5,0l5.8-5.8c0.1-0.1,0.1-0.3,0-0.5c-0.2-0.1-0.3-0.1-0.5,0L153.4,107.7z M153.6,66.7
		c-0.1,0.1-0.1,0.3,0,0.5c0.2,0.1,0.3,0.1,0.5,0l2.4-2.4c0.2-0.1,0.2-0.3,0-0.5c-0.1-0.2-0.3-0.2-0.5,0L153.6,66.7z M155.1,67.7
		c-0.1,0.2-0.1,0.3,0,0.5c0.1,0.2,0.3,0.2,0.5,0l2.3-2.3c0.2-0.1,0.2-0.3,0-0.5c-0.1-0.1-0.3-0.1-0.5,0L155.1,67.7z M156,69.5
		c-0.1,0.1-0.1,0.3,0,0.5c0.1,0.1,0.3,0.1,0.5,0l2.5-2.5c0.2-0.1,0.2-0.3,0-0.5c-0.1-0.1-0.3-0.1-0.5,0L156,69.5z M156.2,99.8
		c-0.1,0.1-0.1,0.3,0,0.5c0.1,0.1,0.3,0.1,0.5,0l3.2-3.2c0.1-0.1,0.1-0.3,0-0.5c-0.1-0.2-0.3-0.2-0.5,0L156.2,99.8z M156.3,71.7
		c-0.1,0.1-0.1,0.3,0,0.5c0.1,0.1,0.3,0.1,0.5,0l2.8-2.8c0.1-0.1,0.1-0.3,0-0.5c-0.1-0.1-0.3-0.1-0.5,0L156.3,71.7z M156.3,74.2
		c-0.1,0.1-0.1,0.3,0,0.5c0.1,0.1,0.3,0.1,0.5,0l3.1-3.1c0.2-0.2,0.1-0.3,0-0.5c-0.1-0.2-0.3-0.2-0.5,0L156.3,74.2z M156.3,76.8
		c-0.1,0.1-0.1,0.3,0,0.5c0.1,0.1,0.3,0.1,0.5,0l3.1-3.1c0.1-0.1,0.1-0.3,0-0.5c-0.1-0.1-0.3-0.1-0.5,0L156.3,76.8z M156.3,79.3
		c-0.1,0.1-0.1,0.3,0,0.5c0.1,0.2,0.3,0.2,0.5,0l3.1-3.1c0.1-0.1,0.1-0.3,0-0.5c-0.1-0.1-0.3-0.1-0.5,0L156.3,79.3z M156.3,81.8
		c-0.1,0.2-0.1,0.3,0,0.5c0.1,0.2,0.3,0.2,0.5,0l3.1-3.1c0.1-0.1,0.1-0.3,0-0.5c-0.1-0.1-0.3-0.1-0.5,0L156.3,81.8z M156.3,84.4
		c-0.1,0.1-0.1,0.3,0,0.5c0.1,0.1,0.3,0.1,0.5,0l3.1-3.1c0.1-0.2,0.1-0.3,0-0.5c-0.1-0.2-0.3-0.2-0.5,0L156.3,84.4z M156.3,87
		c-0.1,0.1-0.1,0.3,0,0.5c0.1,0.1,0.3,0.1,0.5,0l3.1-3.1c0.1-0.1,0.1-0.3,0-0.5c-0.1-0.1-0.3-0.1-0.5,0L156.3,87z M156.3,89.5
		c-0.1,0.1-0.1,0.3,0,0.5c0.1,0.1,0.3,0.1,0.5,0l3.1-3.1c0.1-0.1,0.1-0.3,0-0.5c-0.1-0.1-0.3-0.1-0.5,0L156.3,89.5z M156.3,92
		c-0.1,0.1-0.1,0.3,0,0.5c0.1,0.1,0.3,0.1,0.5,0l3.1-3.1c0.1-0.1,0.1-0.3,0-0.5c-0.1-0.1-0.3-0.1-0.5,0L156.3,92z M156.3,94.6
		c-0.1,0.2-0.1,0.3,0,0.5c0.1,0.2,0.3,0.2,0.5,0l3.1-3.1c0.1-0.1,0.1-0.3,0-0.5c-0.1-0.1-0.3-0.1-0.5,0L156.3,94.6z M156.3,97.2
		c-0.1,0.1-0.1,0.3,0,0.5c0.1,0.1,0.3,0.1,0.5,0l3.1-3.1c0.1-0.2,0.1-0.3,0-0.5c-0.1-0.2-0.3-0.2-0.5,0L156.3,97.2z"/>
	<path class="st1" d="M179.5,63.7v44.1c0,0.7-0.6,1.3-1.3,1.3h-4.7c-0.7,0-1.3-0.6-1.3-1.3V75.4c0-1.9-0.5-3-1.3-3h-1.3
		c-0.7,0-1.3-0.6-1.3-1.3v-3.4c0.1-0.8,1.6-1.1,2.8-1.7c1.1-0.5,2.1-1.3,2.4-2.5c0.2-0.6,0.5-1.1,1.2-1.1h3.6
		C178.9,62.3,179.5,62.9,179.5,63.7z M169.7,68.1c-0.1,0.2-0.1,0.3,0,0.5c0.1,0.2,0.3,0.2,0.5,0l0.2-0.2c0.2-0.1,0.2-0.3,0-0.5
		c-0.1-0.1-0.3-0.1-0.5,0L169.7,68.1z M170.1,70.3c-0.2,0.1-0.2,0.3,0,0.5c0.1,0.1,0.3,0.1,0.5,0l6.5-6.5c0.1-0.1,0.1-0.3,0-0.5
		c-0.2-0.1-0.3-0.1-0.5,0L170.1,70.3z M170.5,73.5h0.3c0.1,0,0.1,0.2,0.1,0.6C170.7,73.9,170.6,73.7,170.5,73.5z M172.2,70.7
		c-0.1,0.1-0.1,0.3,0,0.5c0.1,0.1,0.3,0.1,0.5,0l5.3-5.3c0.1-0.1,0.1-0.3,0-0.5c-0.1-0.2-0.3-0.2-0.5,0L172.2,70.7z M173.3,72.2
		c-0.1,0.1-0.1,0.3,0,0.5c0.1,0.1,0.3,0.1,0.5,0l4.2-4.2c0.1-0.1,0.1-0.3,0-0.5c-0.1-0.1-0.3-0.1-0.5,0L173.3,72.2z M173.7,74.3
		c-0.1,0.1-0.1,0.3,0,0.5c0.1,0.2,0.3,0.2,0.5,0l3.8-3.8c0.1-0.1,0.1-0.3,0-0.5c-0.1-0.1-0.3-0.1-0.5,0L173.7,74.3z M173.7,76.9
		c-0.1,0.2-0.1,0.3,0,0.5c0.1,0.2,0.3,0.2,0.5,0l3.8-3.8c0.1-0.1,0.1-0.3,0-0.5c-0.1-0.1-0.3-0.1-0.5,0L173.7,76.9z M173.7,79.5
		c-0.1,0.1-0.1,0.3,0,0.5c0.1,0.1,0.3,0.1,0.5,0l3.8-3.8c0.1-0.2,0.1-0.3,0-0.5c-0.1-0.2-0.3-0.2-0.5,0L173.7,79.5z M173.7,82
		c-0.1,0.1-0.1,0.3,0,0.5c0.1,0.1,0.3,0.1,0.5,0l3.8-3.8c0.1-0.1,0.1-0.3,0-0.5c-0.1-0.2-0.3-0.2-0.5,0L173.7,82z M173.7,84.6
		c-0.1,0.1-0.1,0.3,0,0.5c0.1,0.1,0.3,0.1,0.5,0l3.8-3.8c0.1-0.1,0.1-0.3,0-0.5c-0.1-0.1-0.3-0.1-0.5,0L173.7,84.6z M173.7,87.1
		c-0.1,0.1-0.1,0.3,0,0.5c0.1,0.1,0.3,0.1,0.5,0l3.8-3.8c0.1-0.1,0.1-0.3,0-0.5c-0.1-0.1-0.3-0.1-0.5,0L173.7,87.1z M173.7,89.6
		c-0.1,0.1-0.1,0.3,0,0.5c0.1,0.2,0.3,0.2,0.5,0l3.8-3.8c0.1-0.1,0.1-0.3,0-0.5c-0.1-0.1-0.3-0.1-0.5,0L173.7,89.6z M173.7,92.2
		c-0.1,0.2-0.1,0.3,0,0.5c0.1,0.2,0.3,0.2,0.5,0l3.8-3.8c0.1-0.1,0.1-0.3,0-0.5c-0.1-0.1-0.3-0.1-0.5,0L173.7,92.2z M173.7,94.8
		c-0.1,0.1-0.1,0.3,0,0.5c0.1,0.1,0.3,0.1,0.5,0l3.8-3.8c0.1-0.2,0.1-0.3,0-0.5c-0.1-0.2-0.3-0.2-0.5,0L173.7,94.8z M173.7,97.3
		c-0.1,0.1-0.1,0.3,0,0.5s0.3,0.1,0.5,0l3.8-3.8c0.1-0.1,0.1-0.3,0-0.5s-0.3-0.1-0.5,0L173.7,97.3z M173.7,99.9
		c-0.1,0.1-0.1,0.3,0,0.5c0.1,0.1,0.3,0.1,0.5,0l3.8-3.8c0.1-0.1,0.1-0.3,0-0.5c-0.1-0.1-0.3-0.1-0.5,0L173.7,99.9z M173.7,102.4
		c-0.1,0.1-0.1,0.3,0,0.5c0.1,0.1,0.3,0.1,0.5,0l3.8-3.8c0.1-0.1,0.1-0.3,0-0.5c-0.1-0.1-0.3-0.1-0.5,0L173.7,102.4z M173.7,104.9
		c-0.1,0.2-0.1,0.3,0,0.5c0.1,0.2,0.3,0.2,0.5,0l3.8-3.8c0.1-0.1,0.1-0.3,0-0.5c-0.1-0.1-0.3-0.1-0.5,0L173.7,104.9z M174.1,107.1
		c-0.2,0.1-0.2,0.3,0,0.5c0.1,0.1,0.3,0.1,0.5,0l3.3-3.3c0.1-0.2,0.1-0.3,0-0.5c-0.1-0.2-0.3-0.2-0.5,0L174.1,107.1z M174.5,110.2
		h3.6c1.3,0,2.5-1.1,2.5-2.5V64.3c0.7,0.1,1.2,0.7,1.2,1.3v44.1c0,0.7-0.6,1.3-1.3,1.3h-4.7C175.2,111.1,174.7,110.7,174.5,110.2z
		 M176.7,107.1c-0.2,0.1-0.1,0.3,0,0.5c0.1,0.1,0.3,0.1,0.5,0l0.8-0.8c0.1-0.1,0.1-0.3,0-0.5c-0.1-0.2-0.3-0.2-0.5,0L176.7,107.1z"
		/>
	<path class="st1" d="M198.4,61.5c6.1,0.2,10.8,4.7,10.8,10.8v26.6c-0.1,6.2-4.8,11-10.8,11c-6.2,0-10.9-5-10.9-11V97
		c0-0.7,0.6-1.3,1.3-1.3h4.7c0.7,0,1.3,0.6,1.3,1.3v1.9c0,3.2,2,4.9,3.5,4.9c1.4,0,3.3-1.7,3.5-4.5v-3.7c0-2.1-0.6-3.1-1.7-2.9
		c-0.5,0.1-1.1,0.1-1.7,0.1c-6.2,0-10.9-4.3-10.9-10.3V72.3C187.6,66.1,192.4,61.5,198.4,61.5z M189,73.3c-0.1,0.1-0.1,0.3,0,0.5
		c0.1,0.1,0.3,0.1,0.5,0l10.1-10.1c0.1-0.1,0.1-0.3,0-0.5c-0.1-0.2-0.3-0.2-0.5,0L189,73.3z M189,75.8c-0.1,0.1-0.1,0.3,0,0.5
		c0.1,0.1,0.3,0.1,0.5,0l3.8-3.8c0.1-0.1,0.1-0.3,0-0.5c-0.1-0.1-0.3-0.1-0.5,0L189,75.8z M189,78.4c-0.1,0.1-0.1,0.3,0,0.5
		c0.1,0.1,0.3,0.1,0.5,0l3.8-3.8c0.1-0.1,0.1-0.3,0-0.5c-0.1-0.1-0.3-0.1-0.5,0L189,78.4z M189,80.9c-0.1,0.2-0.1,0.3,0,0.5
		c0.1,0.2,0.3,0.2,0.5,0l3.8-3.8c0.1-0.1,0.1-0.3,0-0.5c-0.1-0.1-0.3-0.1-0.5,0L189,80.9z M189,98.8c-0.1,0.1-0.1,0.3,0,0.5
		c0.1,0.1,0.3,0.1,0.5,0l1.6-1.6c0.1-0.1,0.1-0.3,0-0.5c-0.2-0.1-0.3-0.1-0.5,0L189,98.8z M189.1,83.4c-0.1,0.2-0.1,0.3,0,0.5
		c0.2,0.2,0.3,0.2,0.5,0l3.7-3.7c0.1-0.2,0.1-0.3,0-0.5c-0.1-0.2-0.3-0.2-0.5,0L189.1,83.4z M189.2,70.6c-0.2,0.1-0.2,0.3,0,0.5
		c0.1,0.1,0.3,0.1,0.5,0l7.4-7.5c0.2-0.1,0.2-0.3,0-0.5c-0.1-0.1-0.3-0.1-0.5,0L189.2,70.6z M189.4,101c-0.1,0.1-0.1,0.3,0,0.5
		c0.1,0.1,0.3,0.1,0.5,0l3.5-3.5c0.1-0.1,0.1-0.3,0-0.5c-0.1-0.1-0.3-0.1-0.5,0L189.4,101z M189.6,85.4c-0.1,0.1-0.1,0.3,0,0.5
		c0.1,0.1,0.3,0.1,0.5,0l3.2-3.2c0.1-0.1,0.1-0.3,0-0.5c-0.1-0.2-0.3-0.2-0.5,0L189.6,85.4z M190.1,102.8c-0.1,0.1-0.1,0.3,0,0.5
		s0.3,0.1,0.5,0l2.8-2.8c0.1-0.1,0.1-0.3,0-0.5c-0.1-0.1-0.3-0.1-0.5,0L190.1,102.8z M190.6,87c-0.2,0.1-0.2,0.3,0,0.5
		c0.1,0.2,0.3,0.2,0.5,0l2.5-2.5c0.2-0.2,0.2-0.3,0-0.5c-0.1-0.1-0.3-0.1-0.5,0L190.6,87z M191,66.3c-0.2,0.1-0.2,0.3,0,0.5
		c0.1,0.1,0.3,0.1,0.5,0l1.3-1.3c0.1-0.1,0.1-0.3,0-0.5c-0.1-0.1-0.3-0.1-0.5,0L191,66.3z M191.1,104.3c-0.1,0.1-0.1,0.3,0,0.5
		c0.1,0.2,0.3,0.2,0.5,0l2.3-2.3c0.1-0.1,0.1-0.3,0-0.5c-0.2-0.1-0.3-0.1-0.5,0L191.1,104.3z M191.7,88.4c-0.1,0.1-0.1,0.3,0,0.5
		c0.2,0.1,0.3,0.1,0.5,0l2.1-2.1c0.2-0.1,0.1-0.3,0-0.5c-0.1-0.2-0.3-0.2-0.5,0L191.7,88.4z M192.4,105.7c-0.2,0.1-0.2,0.3,0,0.5
		c0.1,0.1,0.3,0.1,0.5,0l2-2.1c0.1-0.1,0.1-0.3,0-0.5c-0.1-0.1-0.3-0.1-0.5,0L192.4,105.7z M193.2,89.5c-0.1,0.1-0.1,0.3,0,0.5
		c0.1,0.2,0.3,0.2,0.5,0l1.9-1.9c0.2-0.1,0.2-0.3,0-0.5c-0.1-0.2-0.3-0.2-0.5,0L193.2,89.5z M193.8,106.7c-0.1,0.2-0.1,0.3,0,0.5
		c0.1,0.2,0.3,0.2,0.5,0l1.9-1.9c0.1-0.1,0.1-0.3,0-0.5c-0.2-0.1-0.3-0.1-0.5,0L193.8,106.7z M194.9,90.3c-0.1,0.2-0.1,0.3,0,0.5
		c0.1,0.2,0.3,0.2,0.5,0l2-2c0.1-0.1,0.1-0.3,0-0.5c-0.1-0.1-0.3-0.1-0.5,0L194.9,90.3z M198.4,86.9c1.5,0,3.3-1.1,3.5-4.1V72.3
		c0-3.1-2-4.1-3.5-4.1c-1.5,0-3.5,1-3.5,4.1v10.4C194.8,85.8,196.8,86.9,198.4,86.9z M195.5,93.8c0.9,0.2,1.9,0.3,2.9,0.3
		c0.7,0,1.3-0.1,1.9-0.1c0.3-0.1,0.4,0.3,0.5,1C198.8,94.9,197,94.5,195.5,93.8z M195.6,107.5c-0.1,0.1-0.1,0.3,0,0.5
		c0.1,0.1,0.3,0.1,0.5,0l2.1-2.1c0.1-0.1,0.1-0.3,0-0.5s-0.3-0.1-0.5,0L195.6,107.5z M195.8,110.7c0.8,0.2,1.7,0.3,2.6,0.3
		c6.7,0,11.8-5.2,12-12.1V72.3c0-1.5-0.3-2.9-0.7-4.1c1.2,1.7,1.9,3.8,1.9,6.1v26.6c-0.1,6.2-4.8,11-10.8,11
		C198.9,111.9,197.2,111.4,195.8,110.7z M196,72.3c0-2.2,1.3-2.9,2.4-2.9c0.6,0,1.3,0.3,1.7,0.9c-1.4,0.2-2.9,1.3-2.9,4v10.4
		c0,0.3,0,0.6,0.1,0.9c-0.7-0.5-1.3-1.3-1.3-2.9V72.3z M197.3,102.3c-0.7-0.5-1.3-1.7-1.3-3.4v-1.3c0.7,0.1,1.2,0.7,1.2,1.3v1.9
		C197.2,101.5,197.2,101.9,197.3,102.3z M197,90.8c-0.1,0.1-0.1,0.3,0,0.5c0.1,0.1,0.3,0.1,0.5,0l2.8-2.8c0.1-0.1,0.1-0.3,0-0.5
		c-0.2-0.1-0.3-0.1-0.5,0L197,90.8z M197.8,107.9c-0.1,0.1-0.1,0.3,0,0.5c0.1,0.1,0.3,0.1,0.5,0l9.4-9.4c0.1-0.1,0.1-0.3,0-0.5
		c-0.1-0.1-0.3-0.1-0.5,0L197.8,107.9z M198.6,66.2c-0.1,0.1-0.1,0.3,0,0.5c0.1,0.1,0.3,0.1,0.5,0l2.5-2.5c0.1-0.1,0.1-0.3,0-0.5
		c-0.2-0.1-0.3-0.1-0.5,0L198.6,66.2z M199.5,90.8c-0.1,0.1-0.1,0.3,0,0.5c0.1,0.1,0.3,0.1,0.5,0l7.7-7.7c0.1-0.1,0.1-0.3,0-0.5
		c-0.1-0.1-0.3-0.1-0.5,0L199.5,90.8z M200.6,66.8c-0.1,0.1-0.1,0.3,0,0.5s0.3,0.1,0.5,0l2.3-2.3c0.2-0.1,0.1-0.3,0-0.5
		c-0.1-0.1-0.3-0.1-0.5,0L200.6,66.8z M200.6,107.6c-0.1,0.1-0.1,0.3,0,0.5c0.1,0.1,0.3,0.1,0.5,0l6.3-6.3c0.1-0.1,0.1-0.3,0-0.5
		c-0.1-0.1-0.3-0.1-0.5,0L200.6,107.6z M201.8,91.1c-0.1,0.1-0.1,0.3,0,0.5c0.2,0.1,0.3,0.1,0.5,0l5.4-5.4c0.1-0.1,0.1-0.3,0-0.5
		c-0.1-0.1-0.3-0.1-0.5,0L201.8,91.1z M202,67.9c-0.1,0.1-0.1,0.3,0,0.5c0.2,0.1,0.3,0.1,0.5,0l2.3-2.3c0.1-0.1,0.1-0.3,0-0.5
		c-0.1-0.1-0.3-0.1-0.5,0L202,67.9z M202.8,85c-0.1,0.2-0.1,0.3,0,0.5c0.2,0.2,0.3,0.2,0.5,0l4.4-4.3c0.1-0.2,0.1-0.3,0-0.5
		c-0.1-0.2-0.3-0.2-0.5,0L202.8,85z M202.9,92.5c-0.1,0.1-0.1,0.3,0,0.5c0.1,0.1,0.3,0.1,0.5,0l4.3-4.3c0.1-0.1,0.1-0.3,0-0.5
		c-0.1-0.1-0.3-0.1-0.5,0L202.9,92.5z M203,69.5c-0.1,0.1-0.1,0.3,0,0.5c0.1,0.1,0.3,0.1,0.5,0l2.5-2.5c0.1-0.2,0.1-0.3,0-0.5
		c-0.1-0.2-0.3-0.2-0.5,0L203,69.5z M203.3,99.8c-0.2,0.1-0.2,0.3,0,0.5c0.1,0.1,0.3,0.1,0.5,0l3.9-3.9c0.1-0.1,0.1-0.3,0-0.5
		c-0.1-0.2-0.3-0.2-0.5,0L203.3,99.8z M203.4,94.7c-0.2,0.1-0.2,0.3,0,0.5c0.1,0.1,0.3,0.1,0.5,0l3.8-3.9c0.1-0.1,0.1-0.3,0-0.5
		c-0.1-0.1-0.3-0.1-0.5,0L203.4,94.7z M203.4,71.7c-0.1,0.1-0.1,0.3,0,0.5c0.1,0.1,0.3,0.1,0.5,0l3.1-3.1c0.1-0.1,0.1-0.3,0-0.5
		c-0.2-0.1-0.3-0.1-0.5,0L203.4,71.7z M203.4,74.2c-0.1,0.1-0.1,0.3,0,0.5c0.1,0.1,0.3,0.1,0.5,0l3.7-3.7c0.1-0.1,0.1-0.3,0-0.5
		c-0.2-0.1-0.3-0.1-0.5,0L203.4,74.2z M203.4,76.8c-0.1,0.1-0.1,0.3,0,0.5c0.1,0.1,0.3,0.1,0.5,0l3.8-3.8c0.1-0.1,0.1-0.3,0-0.5
		c-0.1-0.1-0.3-0.1-0.5,0L203.4,76.8z M203.4,79.3c-0.1,0.1-0.1,0.3,0,0.5c0.1,0.2,0.3,0.2,0.5,0l3.8-3.8c0.1-0.1,0.1-0.3,0-0.5
		c-0.1-0.1-0.3-0.1-0.5,0L203.4,79.3z M203.4,81.8c-0.1,0.2-0.1,0.3,0,0.5c0.1,0.2,0.3,0.2,0.5,0l3.8-3.8c0.1-0.1,0.1-0.3,0-0.5
		c-0.1-0.1-0.3-0.1-0.5,0L203.4,81.8z M203.4,97.2c-0.1,0.1-0.1,0.3,0,0.5c0.1,0.1,0.3,0.1,0.5,0l3.8-3.8c0.1-0.2,0.1-0.3,0-0.5
		c-0.1-0.2-0.3-0.2-0.5,0L203.4,97.2z"/>
</g>
<g>
	<path class="st0" d="M0,125.8v-0.1c0-2.5,1.5-4.3,3.7-4.3c2.2,0,3.7,1.8,3.7,4.3v0.1c0,2.5-1.5,4.3-3.7,4.3
		C1.5,130,0,128.3,0,125.8z M6,125.8L6,125.8c0-1.9-1-3.1-2.3-3.1c-1.3,0-2.3,1.2-2.3,3v0.1c0,1.8,1,3,2.3,3S6,127.6,6,125.8z"/>
	<path class="st0" d="M8.4,126.8v-0.1c0-1.9,1.2-3.3,2.9-3.3c0.9,0,1.5,0.3,2,0.9l-0.8,1c-0.3-0.3-0.7-0.6-1.3-0.6
		c-0.9,0-1.5,0.9-1.5,2.1v0.1c0,1.2,0.6,2.1,1.6,2.1c0.6,0,0.9-0.3,1.3-0.6l0.7,0.9c-0.5,0.6-1.1,1-2.1,1
		C9.6,130,8.4,128.7,8.4,126.8z"/>
	<path class="st0" d="M14.6,128.4v-3.7h-0.7v-1.2h0.7v-1.7h1.4v1.7h1.4v1.2h-1.4v3.4c0,0.5,0.3,0.7,0.7,0.7c0.3,0,0.5-0.1,0.7-0.2
		v1.1c-0.3,0.2-0.7,0.3-1.1,0.3C15.3,130,14.6,129.6,14.6,128.4z"/>
	<path class="st0" d="M18,126.8v-0.1c0-1.9,1.2-3.3,2.9-3.3c1.7,0,2.9,1.4,2.9,3.3v0.1c0,1.9-1.2,3.2-2.9,3.2
		C19.3,130,18,128.7,18,126.8z M22.5,126.8L22.5,126.8c0-1.3-0.7-2.1-1.6-2.1c-0.9,0-1.6,0.9-1.6,2.1v0.1c0,1.2,0.7,2.1,1.6,2.1
		C21.9,128.9,22.5,128,22.5,126.8z"/>
	<path class="st0" d="M26.4,129v1H25v-8.7h1.4v3.3c0.4-0.6,0.9-1.1,1.9-1.1c1.3,0,2.5,1.1,2.5,3.2v0.2c0,2.1-1.2,3.2-2.5,3.2
		C27.3,130,26.7,129.5,26.4,129z M29.3,126.8v-0.1c0-1.3-0.7-2.1-1.5-2.1s-1.5,0.8-1.5,2v0.1c0,1.2,0.7,2,1.5,2
		C28.7,128.8,29.3,128.1,29.3,126.8z"/>
	<path class="st0" d="M31.6,126.8L31.6,126.8c0-2,1.2-3.4,2.7-3.4c1.7,0,2.6,1.4,2.6,3.3c0,0.1,0,0.3,0,0.5h-4
		c0.1,1.1,0.8,1.6,1.6,1.6c0.6,0,1-0.3,1.5-0.7l0.7,0.8c-0.6,0.6-1.3,1-2.2,1C32.8,130,31.6,128.8,31.6,126.8z M35.6,126.3
		c-0.1-1-0.5-1.7-1.3-1.7c-0.7,0-1.3,0.7-1.4,1.7H35.6z"/>
	<path class="st0" d="M38,123.6h1.4v1.2c0.3-0.8,0.9-1.4,1.9-1.3v1.5h-0.1c-1.1,0-1.8,0.7-1.8,2.2v2.8H38V123.6z"/>
	<path class="st0" d="M44.9,128.8l2.6-2.7c0.9-1,1.3-1.5,1.3-2.2c0-0.8-0.5-1.2-1.2-1.2c-0.7,0-1.1,0.4-1.7,1.1l-0.9-0.9
		c0.7-1,1.5-1.5,2.7-1.5c1.5,0,2.5,0.9,2.5,2.4v0c0,1.1-0.5,1.8-1.8,3l-1.7,1.8h3.5v1.3h-5.3V128.8z"/>
	<path class="st0" d="M51.2,129l0.8-1c0.6,0.5,1.1,0.8,1.8,0.8c0.9,0,1.5-0.6,1.5-1.5v0c0-0.9-0.7-1.4-1.5-1.4
		c-0.5,0-0.9,0.1-1.3,0.3l-0.8-0.5l0.2-4.1h4.4v1.3H53l-0.1,2c0.3-0.1,0.6-0.2,1.1-0.2c1.4,0,2.6,0.8,2.6,2.6v0
		c0,1.7-1.2,2.8-2.9,2.8C52.7,130,51.9,129.6,51.2,129z"/>
	<path class="st0" d="M57.7,125.6h4.8v1.3h-4.8V125.6z"/>
	<path class="st0" d="M63.1,128.9l0.9-1c0.5,0.5,1,0.9,1.8,0.9c0.8,0,1.4-0.5,1.4-1.3v0c0-0.9-0.7-1.3-1.9-1.3h-0.4l-0.2-0.9l2-2.4
		h-3.2v-1.2h4.9v1.1l-2.1,2.4c1.2,0.2,2.2,0.9,2.2,2.3v0c0,1.6-1.1,2.6-2.7,2.6C64.7,130,63.8,129.6,63.1,128.9z"/>
	<path class="st0" d="M69.6,125.8v-0.1c0-2.5,1.2-4.3,3.2-4.3c1.9,0,3.2,1.7,3.2,4.3v0.1c0,2.5-1.2,4.3-3.2,4.3
		C70.9,130,69.6,128.3,69.6,125.8z M74.6,125.8L74.6,125.8c0-2-0.7-3.1-1.8-3.1c-1,0-1.8,1.1-1.8,3v0.1c0,1.9,0.7,3,1.8,3
		C73.9,128.8,74.6,127.6,74.6,125.8z"/>
	<path class="st0" d="M76.6,131.1c0.7-0.1,1-0.6,1-1.2H77v-1.6h1.5v1.3c0,1.3-0.6,1.9-1.8,2L76.6,131.1z"/>
	<path class="st0" d="M82.6,128.8l2.6-2.7c0.9-1,1.3-1.5,1.3-2.2c0-0.8-0.5-1.2-1.2-1.2c-0.7,0-1.1,0.4-1.7,1.1l-0.9-0.9
		c0.7-1,1.5-1.5,2.7-1.5c1.5,0,2.5,0.9,2.5,2.4v0c0,1.1-0.5,1.8-1.8,3l-1.7,1.8h3.5v1.3h-5.3V128.8z"/>
	<path class="st0" d="M89,125.8v-0.1c0-2.5,1.2-4.3,3.2-4.3c1.9,0,3.2,1.7,3.2,4.3v0.1c0,2.5-1.2,4.3-3.2,4.3
		C90.2,130,89,128.3,89,125.8z M93.9,125.8L93.9,125.8c0-2-0.7-3.1-1.8-3.1c-1,0-1.8,1.1-1.8,3v0.1c0,1.9,0.7,3,1.8,3
		C93.2,128.8,93.9,127.6,93.9,125.8z"/>
	<path class="st0" d="M97.6,122.9l-1.3,0.4l-0.2-1.2l1.9-0.6h1v8.5h-1.4V122.9z"/>
	<path class="st0" d="M104.7,126.2c-0.4,0.5-1,0.8-1.8,0.8c-1.5,0-2.6-0.9-2.6-2.7v0c0-1.7,1.2-2.9,2.8-2.9c0.9,0,1.5,0.3,2,0.8
		c0.6,0.6,1,1.5,1,3.2v0.1c0,2.9-1.2,4.6-3.2,4.6c-0.9,0-1.6-0.3-2.3-0.8l0.7-1.1c0.5,0.4,1,0.7,1.6,0.7
		C104.1,128.8,104.7,127.5,104.7,126.2z M104.6,124.2L104.6,124.2c0-1-0.6-1.6-1.5-1.6c-0.9,0-1.4,0.7-1.4,1.6v0
		c0,0.9,0.6,1.5,1.5,1.5C104.1,125.8,104.6,125.1,104.6,124.2z"/>
	<path class="st0" d="M110.8,120.4h1.1v10.9h-1.1V120.4z"/>
	<path class="st0" d="M116.4,128.8l0.8-1c0.6,0.6,1.3,1,2.2,1c0.8,0,1.3-0.4,1.3-1.1v0c0-0.5-0.3-0.9-1.6-1.4
		c-1.6-0.6-2.4-1.2-2.4-2.5v0c0-1.4,1.1-2.4,2.7-2.4c1,0,1.9,0.3,2.6,1l-0.8,1.1c-0.6-0.5-1.2-0.8-1.9-0.8c-0.8,0-1.2,0.4-1.2,1v0
		c0,0.6,0.3,0.9,1.7,1.5c1.6,0.6,2.3,1.2,2.3,2.5v0c0,1.5-1.2,2.4-2.7,2.4C118.3,130,117.3,129.6,116.4,128.8z"/>
	<path class="st0" d="M123,128.1L123,128.1c0-1.4,0.9-2.1,2.3-2.1c0.6,0,1,0.1,1.5,0.3V126c0-0.9-0.5-1.3-1.4-1.3
		c-0.6,0-1.1,0.2-1.5,0.4l-0.4-1.1c0.6-0.3,1.2-0.5,2.1-0.5c0.8,0,1.5,0.2,1.9,0.6c0.4,0.4,0.6,1,0.6,1.8v3.9h-1.3v-0.8
		c-0.4,0.5-0.9,0.9-1.8,0.9C123.8,130,123,129.3,123,128.1z M126.7,127.8v-0.6c-0.3-0.1-0.7-0.2-1.2-0.2c-0.8,0-1.2,0.4-1.2,1.1v0
		c0,0.6,0.4,1,1,1C126.1,129,126.7,128.5,126.7,127.8z"/>
	<path class="st0" d="M129.3,123.6h1.4v0.9c0.4-0.6,0.9-1.1,1.7-1.1c1.2,0,2,0.9,2,2.2v4.3H133V126c0-0.9-0.4-1.4-1.1-1.4
		c-0.7,0-1.2,0.5-1.2,1.4v3.9h-1.4V123.6z"/>
	<path class="st0" d="M141.3,121.5h1.3l3.1,8.4h-1.5l-0.7-2h-3.3l-0.7,2h-1.4L141.3,121.5z M143.2,126.7l-1.2-3.4l-1.2,3.4H143.2z"
		/>
	<path class="st0" d="M146.7,123.6h1.4v0.9c0.4-0.6,0.9-1.1,1.7-1.1c1.2,0,2,0.9,2,2.2v4.3h-1.4V126c0-0.9-0.4-1.4-1.1-1.4
		c-0.7,0-1.2,0.5-1.2,1.4v3.9h-1.4V123.6z"/>
	<path class="st0" d="M153.3,128.4v-3.7h-0.7v-1.2h0.7v-1.7h1.4v1.7h1.4v1.2h-1.4v3.4c0,0.5,0.3,0.7,0.7,0.7c0.3,0,0.5-0.1,0.7-0.2
		v1.1c-0.3,0.2-0.7,0.3-1.1,0.3C154,130,153.3,129.6,153.3,128.4z"/>
	<path class="st0" d="M156.8,126.8v-0.1c0-1.9,1.2-3.3,2.9-3.3c1.7,0,2.9,1.4,2.9,3.3v0.1c0,1.9-1.2,3.2-2.9,3.2
		C158,130,156.8,128.7,156.8,126.8z M161.3,126.8L161.3,126.8c0-1.3-0.7-2.1-1.6-2.1c-0.9,0-1.6,0.9-1.6,2.1v0.1
		c0,1.2,0.7,2.1,1.6,2.1C160.7,128.9,161.3,128,161.3,126.8z"/>
	<path class="st0" d="M163.8,123.6h1.4v0.9c0.4-0.6,0.9-1.1,1.7-1.1c1.2,0,2,0.9,2,2.2v4.3h-1.4V126c0-0.9-0.4-1.4-1.1-1.4
		c-0.7,0-1.2,0.5-1.2,1.4v3.9h-1.4V123.6z"/>
	<path class="st0" d="M170.2,121.3h1.4v1.3h-1.4V121.3z M170.2,123.6h1.4v6.4h-1.4V123.6z"/>
	<path class="st0" d="M172.8,126.8v-0.1c0-1.9,1.2-3.3,2.9-3.3c1.7,0,2.9,1.4,2.9,3.3v0.1c0,1.9-1.2,3.2-2.9,3.2
		C174,130,172.8,128.7,172.8,126.8z M177.3,126.8L177.3,126.8c0-1.3-0.7-2.1-1.6-2.1c-0.9,0-1.6,0.9-1.6,2.1v0.1
		c0,1.2,0.7,2.1,1.6,2.1C176.7,128.9,177.3,128,177.3,126.8z"/>
	<path class="st0" d="M179.2,131.1c0.7-0.1,1-0.6,1-1.2h-0.6v-1.6h1.5v1.3c0,1.3-0.6,1.9-1.8,2L179.2,131.1z"/>
	<path class="st0" d="M186.7,122.8h-2.2v-1.3h5.8v1.3H188v7.1h-1.4V122.8z"/>
	<path class="st0" d="M190,126.8L190,126.8c0-2,1.2-3.4,2.7-3.4c1.7,0,2.6,1.4,2.6,3.3c0,0.1,0,0.3,0,0.5h-4
		c0.1,1.1,0.8,1.6,1.6,1.6c0.6,0,1-0.3,1.5-0.7l0.7,0.8c-0.6,0.6-1.3,1-2.2,1C191.2,130,190,128.8,190,126.8z M194,126.3
		c-0.1-1-0.5-1.7-1.3-1.7c-0.7,0-1.3,0.7-1.4,1.7H194z"/>
	<path class="st0" d="M198.4,125.7l1.2-2.1h1.4l-1.9,3.1l2,3.2h-1.5l-1.3-2.3l-1.3,2.3h-1.4l2-3.2l-1.9-3.1h1.5L198.4,125.7z"/>
	<path class="st0" d="M201.6,128.1L201.6,128.1c0-1.4,0.9-2.1,2.3-2.1c0.6,0,1,0.1,1.5,0.3V126c0-0.9-0.5-1.3-1.4-1.3
		c-0.6,0-1.1,0.2-1.5,0.4L202,124c0.6-0.3,1.2-0.5,2.1-0.5c0.8,0,1.5,0.2,1.9,0.6c0.4,0.4,0.6,1,0.6,1.8v3.9h-1.3v-0.8
		c-0.4,0.5-0.9,0.9-1.8,0.9C202.5,130,201.6,129.3,201.6,128.1z M205.3,127.8v-0.6c-0.3-0.1-0.7-0.2-1.2-0.2c-0.8,0-1.2,0.4-1.2,1.1
		v0c0,0.6,0.4,1,1,1C204.7,129,205.3,128.5,205.3,127.8z"/>
	<path class="st0" d="M207.4,129.1l0.6-1c0.6,0.5,1.2,0.7,1.8,0.7c0.6,0,0.9-0.3,0.9-0.7v0c0-0.5-0.5-0.7-1.2-1
		c-0.9-0.4-1.7-0.8-1.7-1.9v0c0-1.1,0.9-1.9,2.1-1.9c0.7,0,1.5,0.3,2.1,0.7l-0.6,1c-0.5-0.3-1-0.6-1.5-0.6s-0.8,0.3-0.8,0.6v0
		c0,0.4,0.5,0.6,1.2,1c1,0.4,1.7,0.9,1.7,1.9v0c0,1.2-0.9,1.9-2.2,1.9C209,130,208.2,129.8,207.4,129.1z"/>
</g>
<g>
	<g>
		<path class="st1" d="M113.4,84c0,0.2-0.1,0.4-0.3,0.5l-4.2,4.1l1,5.7c0,0.1,0,0.1,0,0.2c0,0.2,0,0.3-0.1,0.4
			c-0.1,0.1-0.2,0.2-0.3,0.2c-0.1,0-0.3,0-0.5-0.1l-5.1-2.7L98.7,95c-0.2,0.1-0.3,0.1-0.5,0.1c-0.2,0-0.3-0.1-0.4-0.2
			c-0.1-0.1-0.1-0.2-0.1-0.4c0,0,0-0.1,0-0.2l1-5.7l-4.2-4.1c-0.2-0.2-0.3-0.4-0.3-0.5c0-0.3,0.2-0.5,0.6-0.5l5.8-0.8l2.6-5.2
			c0.1-0.3,0.3-0.5,0.6-0.5c0.2,0,0.4,0.2,0.6,0.5l2.6,5.2l5.8,0.8C113.2,83.5,113.4,83.7,113.4,84z"/>
	</g>
</g>
<g>
	<g>
		<path class="st2" d="M1.8,50.5"/>
	</g>
	<g>
		<path class="st0" d="M209.9,50.5c-3.8,0-7.6,0-11.4,0c-3.8,0-7.6-0.1-11.4-0.1l-0.8,0l0-0.9l-0.2-6.9l1.3,1.1
			c-4.8,0.7-9.6,1-14.5,0.9c-4.9-0.2-9.8-0.9-14.5-2.6c-4.7-1.7-9.2-4.4-12.7-8.3c-1.7-1.9-3.2-4.1-4.3-6.4
			c-0.6-1.2-1.1-2.4-1.4-3.6c-0.2-0.6-0.4-1.3-0.5-1.9c-0.1-0.7-0.3-1.2-0.4-2.1l2.2,2.1l-9.9,0.1l-1.6,0l-0.6-1.5
			c-1.8-4.6-5.1-8.5-9.2-11.2c-4.1-2.7-9-4.2-14-4.1c-4.9,0-9.8,1.4-14,4.2c-4.1,2.7-7.4,6.7-9.2,11.2l-0.6,1.5l-1.6,0l-9.6-0.1
			l2.3-2.1c-0.1,0.8-0.2,1.4-0.4,2.1c-0.1,0.6-0.3,1.3-0.5,1.9c-0.4,1.2-0.9,2.5-1.4,3.6c-1.1,2.3-2.6,4.5-4.3,6.4
			c-3.5,3.8-8,6.6-12.7,8.3c-4.7,1.7-9.7,2.5-14.5,2.6c-4.9,0.2-9.7-0.2-14.5-0.9l1.3-1.1l-0.2,6.9l0,0.9l-0.9,0
			c-3.9,0.1-7.7,0.1-11.6,0.1c-3.9,0-7.7,0-11.6,0c3.8-0.4,7.7-0.7,11.5-1c3.8-0.3,7.7-0.7,11.5-1L24,49.5l-0.2-6.9l0-1.2l1.3,0.1
			c4.7,0.4,9.4,0.5,14.1,0.1c1.2-0.1,2.3-0.3,3.5-0.4c1.1-0.2,2.3-0.4,3.4-0.6c2.3-0.4,4.4-1.2,6.6-2c4.2-1.7,8-4.2,10.8-7.6
			c1.4-1.7,2.6-3.5,3.5-5.5c0.5-1,0.8-2,1.1-3.1c0.1-0.5,0.3-1,0.4-1.6c0.1-0.5,0.2-1.1,0.2-1.5l0.2-2.1l2.1,0l9.6-0.1l-2.2,1.5
			c2.1-5.5,6-10.3,10.9-13.6C94.1,1.8,100,0,105.8,0c5.9,0,11.8,1.8,16.7,5.1c4.9,3.3,8.8,8,10.9,13.6l-2.2-1.5l9.9,0.1l2.1,0
			l0.2,2.1c0,0.4,0.1,1,0.2,1.5c0.1,0.5,0.2,1,0.4,1.6c0.3,1,0.7,2.1,1.1,3.1c0.9,2,2.1,3.8,3.5,5.5c2.8,3.4,6.6,5.9,10.8,7.6
			c2.1,0.8,4.3,1.5,6.6,2c1.1,0.3,2.3,0.4,3.4,0.6c1.1,0.2,2.3,0.3,3.5,0.4c4.6,0.4,9.4,0.3,14.1-0.1l1.3-0.1l0,1.2l-0.2,6.9
			l-0.9-0.9c3.8,0.3,7.6,0.6,11.4,0.9C202.3,49.8,206.1,50.2,209.9,50.5z"/>
	</g>
</g>
<g>
	<path class="st0" d="M195.5,93.8c0.9,0.2,1.9,0.3,2.9,0.3c0.7,0,1.3-0.1,1.9-0.1c0.3-0.1,0.4,0.3,0.5,1
		C198.8,94.9,197,94.5,195.5,93.8z"/>
	<g>
		<path class="st0" d="M54.9,80.2h3.6c1.3,0,2.5-1.1,2.5-2.5v-4.2c0-1.9-0.3-3.7-0.9-5.2c1.3,1.9,2.1,4.4,2.1,7.2v4.2
			c0,0.7-0.6,1.3-1.3,1.3h-4.7C55.5,81,55.1,80.7,54.9,80.2z"/>
		<path class="st0" d="M84.4,78.2H88c1.3,0,2.5-1.1,2.5-2.5v-2.3c0-2-0.3-3.8-0.9-5.4c1.3,1.9,2.1,4.5,2.1,7.4v2.3
			c0,0.7-0.6,1.3-1.3,1.3h-4.7C85,79.1,84.6,78.8,84.4,78.2z"/>
		<path class="st0" d="M115.1,80.2h3.6c1.3,0,2.5-1.1,2.5-2.5v-5.2c0-1.9,0.9-3.1,2.3-3.1c0.7,0,1.3,0.3,1.8,0.9
			c-1.8,0.3-2.9,1.9-2.9,4.2v5.2c0,0.7-0.6,1.3-1.3,1.3h-4.7C115.8,81,115.3,80.7,115.1,80.2z"/>
		<path class="st0" d="M115.8,110.2h17.2c1.3,0,2.5-1.1,2.5-2.5v-4c0.7,0.1,1.2,0.7,1.2,1.3v4.7c0,0.7-0.6,1.3-1.3,1.3h-18.3
			C116.5,111.1,116,110.7,115.8,110.2z"/>
		<path class="st0" d="M170.5,73.5h0.3c0.1,0,0.1,0.2,0.1,0.6C170.7,73.9,170.6,73.7,170.5,73.5z"/>
		<g>
			<path class="st0" d="M44.6,110.7c1.1,0.2,2.1,0.3,3.3,0.3c7.7,0,13-5.3,13-13.1v-3.5c0.7,0.1,1.2,0.7,1.2,1.3v4.2
				c0,7.1-4.7,12-11.8,12C48.2,111.9,46.3,111.5,44.6,110.7z"/>
			<g>
				<path class="st0" d="M4.4,110.2h3.3c1.1,0,2.1-0.7,2.3-1.9c0.1-0.7,0.4-1.4,0.5-2.1c0.2-0.7,0.7-1.2,1.5-1.2h8.1
					c0.7,0,1.2,0.3,1.3,0.7v0.1h-7.1c-1.4,0-2.3,0.7-2.6,2.1l-0.5,2.1c-0.1,0.6-0.6,1-1.2,1H5.8C5.1,111.1,4.6,110.7,4.4,110.2z"/>
				<path class="st0" d="M15.8,84.7c0.1-0.5,0.3-0.9,0.3-0.9c0.1,0,0.2,0.3,0.4,0.9v-0.1l0.4,1.8l-2.2,9.1h-0.3
					c-0.8,0-1.1-0.5-0.9-1.3C14.1,91.3,15,87.8,15.8,84.7z"/>
				<path class="st0" d="M25.7,110.2h3.1c1.8,0,2.9-1.4,2.6-3.1L21.2,64.4c0.5,0.1,0.8,0.5,0.9,0.9l10.5,43.9c0.2,1-0.5,1.8-1.5,1.8
					h-4.5C26.1,110.9,25.9,110.6,25.7,110.2z"/>
				<path class="st0" d="M45.8,100.7c-0.8-0.6-1.3-1.6-1.3-2.9V73.5c0-2.1,1.4-3.5,3.5-3.5c0.9,0,1.7,0.3,2.3,0.9
					c-2.7,0-4.6,1.9-4.6,4.7v24.3C45.7,100.2,45.7,100.5,45.8,100.7z"/>
				<path class="st0" d="M74.9,110.7c1,0.2,2,0.3,3.1,0.3c7.5,0,12.5-5.3,12.5-13.1v-9.8c0.7,0.1,1.2,0.7,1.2,1.3v10.4
					c0,7.1-4.5,12-11.4,12C78.3,111.9,76.5,111.5,74.9,110.7z"/>
				<path class="st0" d="M76.2,100.9c-0.8-0.6-1.3-1.6-1.3-2.9V73.5c0-2.1,1.2-3.5,3-3.5c0.8,0,1.5,0.3,2,0.9
					c-2.3,0.2-3.8,2-3.8,4.6v24.4C76.2,100.3,76.2,100.5,76.2,100.9z"/>
				<path class="st0" d="M125.2,100.6c-1-0.1-1.5-0.9-1.1-1.9c1.8-4,3.9-7.5,5.8-10.4c3-4.7,5.6-8.7,5.6-12.6v-3.2
					c0-1.7-0.3-3.3-0.8-4.7c1.3,1.8,2,4.1,2,6.7v3.2c0,6.2-7.4,13.3-11.4,22.6C125.3,100.4,125.2,100.5,125.2,100.6z"/>
				<path class="st0" d="M147.8,110.7c1.1,0.2,2.1,0.3,3.4,0.3c7.5,0,11.2-3.8,11.4-11.9V72.5c0-2.1-0.3-4-0.7-5.6
					c1.3,1.8,1.9,4.3,1.9,7.6v26.6c-0.2,7.3-3.5,10.8-10.2,10.8C151.2,111.9,149.4,111.5,147.8,110.7z"/>
				<path class="st0" d="M148.9,72.5c0-2.1,0.7-3.1,2.3-3.1c0.9,0,1.5,0.3,1.9,0.9c-2,0.2-3,1.5-3,4.3v27.4
					c-0.8-0.3-1.2-1.3-1.2-2.7V72.5z"/>
				<path class="st0" d="M174.5,110.2h3.6c1.3,0,2.5-1.1,2.5-2.5V64.3c0.7,0.1,1.2,0.7,1.2,1.3v44.1c0,0.7-0.6,1.3-1.3,1.3h-4.7
					C175.2,111.1,174.7,110.7,174.5,110.2z"/>
				<path class="st0" d="M195.8,110.7c0.8,0.2,1.7,0.3,2.6,0.3c6.7,0,11.8-5.2,12-12.1V72.3c0-1.5-0.3-2.9-0.7-4.1
					c1.2,1.7,1.9,3.8,1.9,6.1v26.6c-0.1,6.2-4.8,11-10.8,11C198.9,111.9,197.2,111.4,195.8,110.7z"/>
				<path class="st0" d="M196,72.3c0-2.2,1.3-2.9,2.4-2.9c0.6,0,1.3,0.3,1.7,0.9c-1.4,0.2-2.9,1.3-2.9,4v10.4c0,0.3,0,0.6,0.1,0.9
					c-0.7-0.5-1.3-1.3-1.3-2.9V72.3z"/>
			</g>
		</g>
	</g>
	<path class="st0" d="M197.3,102.3c-0.7-0.5-1.3-1.7-1.3-3.4v-1.3c0.7,0.1,1.2,0.7,1.2,1.3v1.9C197.2,101.5,197.2,101.9,197.3,102.3
		z"/>
</g>
</svg>
