<?xml version="1.0" encoding="UTF-8"?> <svg xmlns="http://www.w3.org/2000/svg" xmlns:xlink="http://www.w3.org/1999/xlink" id="Layer_1" data-name="Layer 1" viewBox="0 0 70.89 37.01"> <defs> <style>.cls-1{fill:none;}.cls-2{clip-path:url(#clip-path);}.cls-3{fill:#3f6391;}</style> <clipPath id="clip-path" transform="translate(0 0)"> <rect class="cls-1" width="70.8" height="37.97"></rect> </clipPath> </defs> <title>bus</title> <g class="cls-2"> <path class="cls-3" d="M13.33,25.93a5.54,5.54,0,1,0,5.54,5.54,5.55,5.55,0,0,0-5.54-5.54m0,9a3.48,3.48,0,1,1,3.48-3.48A3.48,3.48,0,0,1,13.33,35m44.43-9a5.54,5.54,0,1,0,5.54,5.54,5.54,5.54,0,0,0-5.54-5.54m0,9a3.48,3.48,0,1,1,3.48-3.48A3.49,3.49,0,0,1,57.76,35M68.83,24.22h2.06V5.88A5.88,5.88,0,0,0,65,0H5.88A5.88,5.88,0,0,0,0,5.88V26.67a5.88,5.88,0,0,0,5.88,5.88H7.41a6.53,6.53,0,0,1-.06-0.83,6.18,6.18,0,1,1,12.35,0,6.53,6.53,0,0,1-.06.83H51.83a5.87,5.87,0,0,1-.06-0.83,6.18,6.18,0,1,1,12.35,0,5.87,5.87,0,0,1-.06.83h6.83V30.1H68.83a0.59,0.59,0,0,1-.59-0.59V24.8a0.58,0.58,0,0,1,.59-0.59M39.22,17.16H28.43V3H39.22V17.16Zm-27.75,0H9.31c-4.95,0-4.85-2.94-4.85-3.26V3.63A0.59,0.59,0,0,1,5,3H16.47V17.16h-5ZM17.06,3H27.84V17.16H17.06V3ZM51.67,17.16H39.8V3H51.67V17.16Zm5.24-.59a0.58,0.58,0,0,1-.59.59h-4.1V3h4.1a0.59,0.59,0,0,1,.59.59V16.57Zm10.55,3.82A19.73,19.73,0,0,1,61.94,20a4.19,4.19,0,0,1-3.26-3.25V3h5.75a3,3,0,0,1,3,3V20.39Z" transform="translate(0 0)"></path> </g> </svg> 