<?xml version="1.0" encoding="UTF-8"?> <svg xmlns="http://www.w3.org/2000/svg" xmlns:xlink="http://www.w3.org/1999/xlink" viewBox="0 0 147.74 150.06"> <defs> <style>.cls-1,.cls-3{fill:none;}.cls-2{clip-path:url(#clip-path);}.cls-3{stroke:#3f6391;stroke-linecap:round;stroke-linejoin:round;stroke-width:4.5px;}</style> <clipPath id="clip-path" transform="translate(0 0)"> <rect class="cls-1" width="147.74" height="150.06"></rect> </clipPath> </defs> <title>hands-up</title> <g class="cls-2"> <path class="cls-3" d="M20.73,87.74V69.25a4.62,4.62,0,0,0-9.24,0v30" transform="translate(0 0)"></path> <path class="cls-3" d="M30,87.74V64.63a4.62,4.62,0,0,0-9.24,0v23.1" transform="translate(0 0)"></path> <path class="cls-3" d="M39.22,87.74V69.25a4.62,4.62,0,0,0-9.24,0V87.74" transform="translate(0 0)"></path> <path class="cls-3" d="M41.53,129.32v-6.93l6.93-18.48v-30a4.62,4.62,0,0,0-9.24,0V87.74" transform="translate(0 0)"></path> <path class="cls-3" d="M11.49,90a4.62,4.62,0,1,0-9.24,0v11.6c0,9.19,11.55,20.74,11.55,20.74v6.93" transform="translate(0 0)"></path> <path class="cls-3" d="M43.84,147.81V131.63a2.31,2.31,0,0,0-2.31-2.31H13.8a2.31,2.31,0,0,0-2.31,2.31v16.17" transform="translate(0 0)"></path> <line class="cls-3" x1="18.42" y1="138.56" x2="23.04" y2="138.56"></line> <path class="cls-3" d="M117.77,69.25V50.77a4.62,4.62,0,0,0-9.24,0v30" transform="translate(0 0)"></path> <path class="cls-3" d="M127,69.25V46.15a4.62,4.62,0,0,0-9.24,0v23.1" transform="translate(0 0)"></path> <path class="cls-3" d="M136.25,69.25V50.77a4.62,4.62,0,0,0-9.24,0V69.25" transform="translate(0 0)"></path> <path class="cls-3" d="M138.56,110.84v-6.93l6.93-18.48v-30a4.62,4.62,0,0,0-9.24,0V69.25" transform="translate(0 0)"></path> <path class="cls-3" d="M108.53,71.56a4.62,4.62,0,1,0-9.24,0v11.6c0,9.19,11.55,20.74,11.55,20.74v6.93" transform="translate(0 0)"></path> <path class="cls-3" d="M140.87,147.81V113.15a2.31,2.31,0,0,0-2.31-2.31H110.84a2.31,2.31,0,0,0-2.31,2.31v34.66" transform="translate(0 0)"></path> <line class="cls-3" x1="115.46" y1="120.08" x2="120.08" y2="120.08"></line> <path class="cls-3" d="M66.94,30V11.49a4.62,4.62,0,0,0-9.24,0v30" transform="translate(0 0)"></path> <path class="cls-3" d="M76.18,30V6.87a4.62,4.62,0,1,0-9.24,0V30" transform="translate(0 0)"></path> <path class="cls-3" d="M85.42,30V11.49a4.62,4.62,0,0,0-9.24,0V30" transform="translate(0 0)"></path> <path class="cls-3" d="M87.74,71.56V64.63l6.93-18.48v-30a4.62,4.62,0,0,0-9.24,0V30" transform="translate(0 0)"></path> <path class="cls-3" d="M57.7,32.29a4.62,4.62,0,0,0-9.24,0v11.6C48.46,53.08,60,64.63,60,64.63v6.93" transform="translate(0 0)"></path> <path class="cls-3" d="M90,147.81V73.87a2.31,2.31,0,0,0-2.31-2.31H60a2.31,2.31,0,0,0-2.31,2.31v73.93" transform="translate(0 0)"></path> <line class="cls-3" x1="64.63" y1="80.8" x2="69.25" y2="80.8"></line> </g> </svg> 